<svg xmlns="http://www.w3.org/2000/svg" viewBox="0 0 185.14 102.86"><defs><style>.cls-1{fill:#a06c38;}.cls-2{fill:none;stroke:#000;stroke-miterlimit:10;}</style></defs><g id="Layer_3" data-name="Layer 3"><path class="cls-1" d="M17.67,33.18s5.68,2.37,8.61,10.34c0,0,6.32-2,7.82,3.68,0,0,6.12,8.64,4.76,32.19,0,0-1,13.48-6.36,22h3.1s5.48-5.11,9.58-22H55.25s1.77,1,.66,8l-.66,3h3s2.25-4.84,2.1-8.62c0,0-1.15-3.58,3.24-2.36h67.25s1.91,0,1.71,3.94c0,0,1.12,7,1.9,7h3s-2.32-9.37-.51-11h10.58s5.29,19.8,9.58,22h3.09s-7.38-14.67-6.35-22c0,0,1-22.67,2.73-27.67.11-.33,3.4-8.2,5.91-8.2,0,0,5.2,1.18,4.86-2.41,0,0,4-6.76,7.76-7.5Z"/><path class="cls-1" d="M31.25,21.5l10.88-1.13a2.34,2.34,0,0,0,3,1.64h0s3.55-2.74,3.15,4.77h0s1.25,7.27-1.36,6.4H33.22l-2-11.68"/><path class="cls-1" d="M74.5,33.32s-1.66-2.89,1.9-2.22h0l7.87-.57-.61-2.93,27.86-7.42s8.45-3.56,7.66.19h0s-.58,7.74,2.61,7.39h0s3.51-.48,1.41,1.48h0S122,34.55,117,33.45s.39,0,0,0L74.5,33.32"/><path class="cls-1" d="M145.13,28.09s-4.24-8,5.8-8.19h0a3.8,3.8,0,0,1,2.92,2.73h0s8-6.64,12.68-2.13h0s5.58,5.39-1.1,10.51h0s-5.11,3.47-9,.91h0s-5.47,2.26-11.31-3.83"/><path class="cls-1" d="M154.17,14.46s1.58,2.77,1,5.18h0s4.73-1.88,3.64-5.18h-4.59"/></g><g id="Layer_2" data-name="Layer 2"><path class="cls-2" d="M95.81,33.18l79.29.43A15.11,15.11,0,0,0,171.26,36a15.73,15.73,0,0,0-4.84,7.55H95.81"/><path class="cls-2" d="M161.45,43.52c-9.68,8.94-7.61,35.87-7.61,35.87H90"/><path class="cls-2" d="M160.19,101.35s-6.27-11.22-6.35-22h-6.32s4.25,17.22,9.58,22Z"/><path class="cls-2" d="M136.58,79.39a28.23,28.23,0,0,0,.87,11h-3c-1.84-3.15-2.32-11-2.32-11"/><path class="cls-2" d="M96.89,33.18H17.67A19.26,19.26,0,0,1,21.44,36a19.35,19.35,0,0,1,4.84,7.55H96.89"/><path class="cls-2" d="M31.25,43.52c9.67,8.94,7.61,35.87,7.61,35.87h63.88"/><path class="cls-2" d="M32.5,101.35s6.28-11.22,6.36-22h6.32s-4.26,17.22-9.58,22Z"/><path class="cls-2" d="M60.57,79.39s-.49,7.83-2.32,11h-3a28.46,28.46,0,0,0,.87-11"/><polygon class="cls-2" points="31.25 21.5 42.13 20.38 44.52 33.19 33.22 33.19 31.25 21.5"/><polygon class="cls-2" points="48.91 33.19 47.9 22.01 42.44 22.01 44.52 33.19 48.91 33.19"/><line class="cls-2" x1="28.46" y1="15.36" x2="32.5" y2="21"/><line class="cls-2" x1="28.46" y1="11.72" x2="34.1" y2="21"/><line class="cls-2" x1="33.35" y1="13.1" x2="36.08" y2="21"/><line class="cls-2" x1="36.74" y1="11.72" x2="38.84" y2="20.37"/><line class="cls-2" x1="40.12" y1="16.05" x2="40.12" y2="20.37"/><path class="cls-2" d="M153.85,22.63s-2.06-4.76-7.2-2.26c0,0-7,6.4,2.51,10.54,0,0,4,2.76,7.28,1a6.9,6.9,0,0,0,2.21.91c3.69.8,6.79-1.8,7.31-2.24a6.36,6.36,0,0,0,2.72-3.93,7,7,0,0,0-3.77-7.29C161.76,17.89,157.41,19.23,153.85,22.63Z"/><path class="cls-2" d="M154.17,14.46a8.82,8.82,0,0,1,1,5.18s4-1.29,3.64-5.18Z"/><polygon class="cls-2" points="73.88 31.29 124.06 27.59 121.05 33.32 74.5 33.32 73.88 31.29"/><polygon class="cls-2" points="83.66 27.59 118.92 18.21 120.05 27.59 84.27 30.52 83.66 27.59"/><path class="cls-2" d="M124.06,27.6s-7.77,3.23-3,5.72"/><path class="cls-2" d="M120.05,27.6c-9.29-2.82-1.13-9.39-1.13-9.39"/></g></svg>