<svg id="Layer_2" data-name="Layer 2" xmlns="http://www.w3.org/2000/svg" viewBox="0 0 41.14 41.14"><defs><style>.cls-1{fill:#77593a;stroke:#000;}.cls-1,.cls-2{stroke-miterlimit:10;}.cls-2{fill:#3a3435;stroke:#191919;}</style></defs><path class="cls-1" d="M33.32,34.78l1.89-1.63a.25.25,0,0,0,0-.36l-7.86-9.33a.26.26,0,0,0-.36,0l-1.73,1.36a.26.26,0,0,0-.05.36L33,34.75A.26.26,0,0,0,33.32,34.78Z"/><path class="cls-2" d="M14.52,32a81.2,81.2,0,0,0,11.86-7.8,81.16,81.16,0,0,0,9.71-9,2.07,2.07,0,0,0,.75-1.33,2,2,0,0,0-.41-1.47L29.92,4a2,2,0,0,0-2.8-.34A64.07,64.07,0,0,0,5.55,20.52a2.07,2.07,0,0,0-.75,1.33,2,2,0,0,0,.41,1.47l6.51,8.34A2,2,0,0,0,14.52,32Z"/></svg>