<svg xmlns="http://www.w3.org/2000/svg" viewBox="0 0 164.57 164.57"><defs><style>.cls-1,.cls-3{fill:#f89525;}.cls-2{fill:#fff;}.cls-3,.cls-4,.cls-5{stroke:#231f20;stroke-miterlimit:10;stroke-width:0.5px;}.cls-4{fill:#f79425;}.cls-5{fill:none;}</style></defs><g id="Layer_3" data-name="Layer 3"><path class="cls-1" d="M131.29,167.31s-3.61-3.7-4.9-22.08c0,0,3.42-6,2.45-8.06,0,0-2.26-1-3.1-5.45,0,0-.58-2.49,3.29-7.78,0,0,5.8-14.09-8-10.27,0,0-3.55-1.67-9.22-.09l-1.1.13-.86-3.95s4.86-9,4.38-11a4.53,4.53,0,0,0,1.9-3.07l-.08-.51s1.49-3.52,3.17-3.59a47.22,47.22,0,0,1,.8-6.58c0-.2.69-5.57,0-7l-1,.13s.73-2.19-.1-2.75c0,0-.87-.3-1.7,1.13l-.42.18.37-1.45s5-1.33,2.5-6.17l-.21-.45s3.89-.93,2.49-5.6a4.63,4.63,0,0,0-3-1.81s3.32-1.19,2.35-7c0,0-.85-4.18-5-3.92a2.9,2.9,0,0,0,1.93-3.8,8.37,8.37,0,0,0-.65-8.54s-3.75-4.11-11.39-1.83c0,0,3.41-5.45-5.33-10.65a17.46,17.46,0,0,0-9.7.19s-1.2-2.21-9.61-.43a4.71,4.71,0,0,0-2,5.8s-1.75-5.49-10.82-2c0,0-10.55-1.79-9.87,5.51,0,0-10.58,1.65-4.94,11.33,0,0-6.88,3.54-3.29,10.06,0,0-5.54,1-4.59,6.65,0,0,0,4.19,6.33,3.7,0,0-4.52,5.74,1.55,9.39a2.7,2.7,0,0,1,1.65.75l.34,1.84,2,0a23.65,23.65,0,0,0,3.23,2l.3,1.91S58.81,87.81,60,90.21c0,0,.58,2.47,4.28,3,0,0,4.49,12,10.18,16.61a33.52,33.52,0,0,1,2.19,13.65l-7-1.48S49,110,46.32,111c0,0-2.71-.42-3.87,8.32,0,0,.32,5.15-1.58,8.26,0,0-2.13,6,.16,8.78,0,0,3.64,1,3.69,9.24,0,0-7.14,3.68-3.67,9.48a11.14,11.14,0,0,0,4,2.42s.9,3-3.85,11.79Z"/><path class="cls-1" d="M125.78,60.56a8.32,8.32,0,0,1-3.3,5.31h0s2.93.77,3.06,5.9h0s.07-6.71,4.75-7.85h0s-3.38.62-4.51-3.36"/><path class="cls-2" d="M101.07,91.48s-4.46,13.68-8.72,17.33c0,0-1.66,4.67,1.42,14.29l3.39-1s3.81-5.09,5.16-6.12L99,106.84s.54-4.71,1.86-5.57h0s-.22-5.06.62-5.79h0l-.43-4.32"/><path class="cls-2" d="M104.15,80.82l-.21,1.47s1.39,3.41-.62,5.87h0s1.23.15,1.23,2.62c0,0,2.62-3.54,3.14-4.1a35.74,35.74,0,0,1,2.6-4.39l.48-2.3s-2.26,2.72-6.62.83"/></g><g id="Layer_2" data-name="Layer 2"><path class="cls-3" d="M61.19,61c-.23.89-.44,1.82-.61,2.78a42.39,42.39,0,0,0,.83,18.48c-2.76,2.89-2.76,7.06-.63,9.24a6.28,6.28,0,0,0,6.08,1.37"/><path class="cls-3" d="M103.93,63.33c.06.46.11.92.17,1.39a73.4,73.4,0,0,1-.16,17.57,7.11,7.11,0,0,1-1,6.2,7,7,0,0,1-5.32,2.67"/><path class="cls-4" d="M93.77,123.42l8.17-2.32C99.55,145,85,132.45,85,132.45a14.1,14.1,0,0,1-10.91,3c-8.12-1.16-5.48-14.38-5.48-14.38l1.16.84,7,1.48"/><path class="cls-4" d="M75.15,111.73s4.06,5.11,6.94,6.27l9.56-6.27.87-7-12.78,4.77-5.24-1.67v2s3.5,8.88,1.69,18c0,0,1.68,4.13,9.42,4.64,0,0,7-1.8,8.16-8.26,0,0-3.36-11-1.63-15.54"/><path class="cls-5" d="M79.2,117.23s3.26,8.87,2.32,14.49"/><path class="cls-5" d="M90.13,117.23s-2.92,11.57-2.62,14.49"/><line class="cls-5" x1="90.13" y1="123.94" x2="90.13" y2="130.11"/><line class="cls-5" x1="79.74" y1="124.48" x2="79.2" y2="130.73"/><path class="cls-3" d="M101.07,90.07c-6.6,23.43-16.75,23.41-16.75,23.41s-11.48,2.7-20-20.46"/><path class="cls-5" d="M77.87,109.61s7,5.81,11.61-1.8"/><path class="cls-5" d="M82.29,91.16c-.61,0-4.42,2.07-2.61,10.07,0,0,.75,5.54,3,5.93,0,0,2.78.52,3.43-7.1C86.13,100.06,87.73,91.16,82.29,91.16Z"/><path class="cls-3" d="M89.34,70.77a16.39,16.39,0,0,1,11.73-5.93c8.06,0,11.12,3.1,11.06,2.71,0,0,.15,3.59-3.35,7.22v1.17h-2.07"/><path class="cls-3" d="M57.76,78.19H55.63V76.45s-9.63-7.1,3.47-8.9c0,0,12.72-.77,17.81,6.36v1.44"/><path class="cls-4" d="M55.68,72.71c.11-.92,2.71-5.81,16-2.06,0,0,5.93,2.32,5.16,6.32,0,0-.71,4.9-10.55,4.51C66.29,81.48,54.77,80.45,55.68,72.71Z"/><path class="cls-4" d="M87.42,75.38S87.29,69.1,96.19,67c0,0,10.58-1.42,12.52,2.84,0,0,1.55,7.61-9.42,9.42C99.29,79.29,89.35,82.44,87.42,75.38Z"/><path class="cls-5" d="M80.84,82.29a3.89,3.89,0,0,1-3,4.1s-.64.38,0,1a7,7,0,0,0,6.32,0"/><path class="cls-5" d="M62.13,66.39s1.18-2,2.69-2a1.72,1.72,0,0,1,.66.13c1.81.71,11.43,8.88,11.43,8.88s2.9-1.08,2.83-1.46-.54-4.71-.54-4.71"/><path class="cls-5" d="M80.89,71.16s.4,1.76-.76,2.24"/><line class="cls-5" x1="82.29" y1="72.28" x2="82.7" y2="73.4"/><path class="cls-5" d="M82.49,65.29s-1,4.45.21,4.52"/><path class="cls-5" d="M82.77,69.25s-.45,2.41,1,3"/><path class="cls-5" d="M85,68.89s-.9,3.39,1,4.51l13.17-9.34s2.38-.64,3.48.78"/><path class="cls-5" d="M78.19,75.94s-.3-1.61-1-1.42A2.08,2.08,0,0,0,77.58,77S78.32,78.13,78.19,75.94Z"/><path class="cls-5" d="M86.35,75.38s-.25-1.18.49-1.19c0,0,.9.33.58,2.13C87.42,76.32,86.23,77.64,86.35,75.38Z"/><path class="cls-5" d="M78.19,75.94s4.12-2.21,8.16-.56"/><path class="cls-5" d="M75.29,87.55s.13.9-1.81,1.8"/><line class="cls-5" x1="70.65" y1="90.39" x2="70.94" y2="91.48"/><line class="cls-5" x1="71.48" y1="89.81" x2="72.52" y2="90.94"/><path class="cls-5" d="M92.84,89.81A6.93,6.93,0,0,0,97,91.16"/><path class="cls-5" d="M65.68,93S71,105.66,73.1,106.84"/><path class="cls-5" d="M99.38,90.78a113.49,113.49,0,0,1-4.44,11"/><path class="cls-5" d="M86.31,88.45s4,.71,4.21,9.61"/><path class="cls-5" d="M78.65,74.19l1.09,1.75s.78.32-.55,1.93"/><path class="cls-5" d="M85.94,74.19a13.36,13.36,0,0,0-1.12,2.13s1.56,1.62,2.08,1.55"/><path class="cls-5" d="M77.29,78.19S73,84.45,62.71,82"/><path class="cls-5" d="M87.81,77.61s3.09,6.33,14.9,1.74"/><path class="cls-3" d="M42.71,165.87c4.32-7.61,1.81-21.61,1.81-21.61-.65-7-3.49-7.87-3.49-7.87-2.84-3.1.65-11,.65-11,1-2.26.77-6.07.77-6.07,1.29-8.77,3.87-8.32,3.87-8.32,2.07-1.42,22.26,10.07,22.26,10.07S67.32,131.53,70,141.26c0,0,1.94,5,1.48,24.61Z"/><path class="cls-4" d="M101.94,121.1s22-11,26.32-7.23c0,0,4,2.19.77,10.07,0,0-3.29,3.73-3.29,7.78,0,.28,1,4.41,2.84,5.25s-2.19,8.26-2.19,8.26,1.16,15.48,3.9,20.38l-35.35.26s5.82-28.87,2.67-35.76"/><path class="cls-5" d="M66.27,167.31s1.19-5.14.59-20c0,0-3.19-12.45-2.54-18.88l.24-9.85"/><path class="cls-4" d="M51.21,135.76s1.29,5.68-9,11.74c0,0-8.54,9,8.07,11.19a12.62,12.62,0,0,0,13-6.61"/><path class="cls-4" d="M102.71,115.94s8.87,2.62,8.13-2.36c0,0,10.28-2.24,10.65,1.52,0,0,.62,4.87-5.38,4.69,0,0,6.29.82,1.89,10.32,0,0-3.38,6.38-9.22,2.34,0,0-3.62-1.27-3.26-8,0,0-4.62,6.22-7.91,5.63,0,0-4.11-1.54-.58-6.76A23.65,23.65,0,0,1,102.71,115.94Z"/><path class="cls-3" d="M97.65,154.7a7.81,7.81,0,0,1,4.68,3.09s9.37,10.72,21.15,4.78c0,0,11.21-9.8,1.16-14.83,0,0-2.07-.77-2.73-4.51"/><path class="cls-4" d="M114.88,165.87c0-1.3-.07-7-7.19-34.15,0,0,6.73,4.78,9.11,0,0,0,.47,12.64,6.15,22.75,0,0,6.61,8.49,6.06,11.4Z"/><path class="cls-5" d="M49.16,111.44s-4.55,4.69-1.44,13a17.07,17.07,0,0,1,1.44,5.63s-.33,4,1.32,4.91v3.37"/><line class="cls-5" x1="65.68" y1="123.35" x2="66.86" y2="124.48"/><line class="cls-5" x1="65.63" y1="130.73" x2="67.03" y2="132.45"/><line class="cls-5" x1="67.03" y1="142.95" x2="69.39" y2="144.56"/><line class="cls-5" x1="68.21" y1="154.28" x2="70" y2="155.94"/><line class="cls-5" x1="68.21" y1="161.81" x2="70" y2="163.28"/><path class="cls-5" d="M110.84,113.58l-1.1-3.81s3.49-5.36,4.41-10.61A6.17,6.17,0,0,0,116,95.39s1.29-3.22,3.12-3.91a27.59,27.59,0,0,1,.73-6.25s1.11-6.06,0-7c0,0-2.9-.86-2.75,7a20.37,20.37,0,0,0-.91,4.58s-2.76.07-5,4.47c0,0-6.79,3.16-4.95,7.55"/><path class="cls-5" d="M109.74,93s1.35-4,4.22-5.47c0,0,.74-2.22,1.84-5.26,0,0,0-5.67,2.57-6.84,0,0,1.5-.49.53,2.9"/><path class="cls-5" d="M108,91.48s1.55-5.38,3.38-6.25A10.71,10.71,0,0,1,113.58,80a9,9,0,0,1,2.23-6.59s1.93-1.36.71,4.47-.72,4.42-.72,4.42l-2.67,5.79"/><path class="cls-5" d="M104.54,91.48A28.55,28.55,0,0,1,108,86.77s.29-1.42,2.61-4.48c0,0,.5-4.56,2.55-6.35a.7.7,0,0,1,1,.09"/><path class="cls-5" d="M105.26,97.52a8.25,8.25,0,0,0-.72-3.78s.38-8.44-3-3.93a10.71,10.71,0,0,0,0,5.67,12.94,12.94,0,0,0-.37,5.42,10,10,0,0,0-1.76,5.94l3.33,9.1"/><path class="cls-5" d="M52.22,158.82a12.85,12.85,0,0,1-.55,8.49"/><path class="cls-5" d="M126.16,139.47s-3.81,2.93-1.62,6.16"/><path class="cls-5" d="M125.39,59.1a6.29,6.29,0,0,1-2.91,6.77s2.44.43,3.06,6.41c0,0-.32-6.25,4.75-8.36C130.29,63.92,126.65,65.1,125.39,59.1Z"/><path class="cls-5" d="M61.42,53.1s-2.9,4.06,2.23,6c0,0,4.51.87,5.74-3,0,0-.67,3.48,5.11,3.58,0,0,5-.29,5.47-3.29,0,0,1.49,2.8,5.89,2.22,0,0,5.27-.77,6.14-5.51,0,0-.94,6.29,7.37,6.58,0,0,.22,4.26,5.91,3.58,0,0,5.16-1.67,4.07-5"/><path class="cls-5" d="M113.13,57.26a4.39,4.39,0,0,1-1.22,3.2,4.53,4.53,0,0,1-3.74,1.19"/><path class="cls-5" d="M63.65,59.1a8.6,8.6,0,0,1-9.88,2.22"/><path class="cls-5" d="M55.11,76s-7.84-1.64-2.89-9.68c0,0-7,.68-6.28-4.54,0,0-.21-5.33,4.54-5.81,0,0-3.77-6.58,3.29-10.06,0,0-6.09-8.42,4.94-11.33,0,0-1.16-4.16,4.94-5.51,0,0,3.58-.78,4.93,0,0,0,7.68-3.49,10.62,1.74,0,0-1.39-6.58,5.85-6.1,0,0,5.6-.39,6.18,1.07,0,0,7.74-3.1,12.67,2.22,0,0,4.47,3.58,2,8,0,0,9.67-2.61,12.67,4a6.92,6.92,0,0,1-.67,6.39s1.16,3.34-2,3.94c0,0,5.91-1.26,5.33,7.51,0,0,.19,2.78-3.2,3.45,0,0,5.52-.06,3.78,5.49a4.79,4.79,0,0,1-2.59,2.08s3.75,4.23-2.3,6.46"/><path class="cls-5" d="M104.15,80.38s3.69,3.21,7.08-1.06"/><path class="cls-5" d="M84.82,92.14c.11-4.31-2.53-1-2.53-1S79.23,88.72,80,93.43"/><path class="cls-5" d="M82.27,107s-1.35,1.5.22,2.08c0,0,2.28.16,1.32-2.31"/></g></svg>