<svg xmlns="http://www.w3.org/2000/svg" viewBox="0 0 164.57 164.57"><defs><style>.cls-1,.cls-3{fill:#3c55a5;}.cls-2{fill:none;}.cls-2,.cls-3{stroke:#231f20;stroke-miterlimit:10;stroke-width:0.5px;}</style></defs><g id="Layer_3" data-name="Layer 3"><path class="cls-1" d="M36.35,167.48l112.36,1s-2.9-38.45-17.56-63.16c0,0-5.76-9.26-25.6-12.19,0,0-2.06-6.06-4.47-7.36a9.67,9.67,0,0,0-6.82-2.13l-6.32-8.48-4.36,1.23-2.13-2.84L83.58,73l-.48-2.6,2.13-.2V61.61s9.28-35.13-22.41-39.09c0,0-4.79-4.46-5-8,0,0-1.4,1.46-1.69,6.2,0,0-4.94-5.13-5.33-7.74,0,0-1.55,6.58,0,9.19,0,0-3.09-3.87-9.67-2l-4.55-3.08-1-.73s-1.12,7.43,2.36,10.39c0,0-2.62,2.87-7.06.82,0,0-2.13-2.52-6.78-2.23,0,0,3.83,1.36,4.36,2.62,0,0-4.15.66-4.84,1.83,0,0,3.07.39,3.13,1.46,0,0-4.68-1.79-13.48,2.61,0,0,5.71-.29,6.58.48,0,0-4.75,1-5.71,4.07,0,0,8.06-2.23,10.64.53,0,0,1.31,1.69-.68,1.89,0,0,.94,3-4,1.16a7.77,7.77,0,0,1-3.61-2.91s-1.69,3.62,1.16,5.59a10.07,10.07,0,0,0-7.16-1.52s5.9,2.71,6.72,5.81c0,0,1,1-.57,1.86,0,0-1.31,1.47-1.22,2.49,0,0,2.67,0,2.81.48L17,55.9s3.44-1,4.35-.76c0,0-3.09,2.36-3.19,3.4,0,0,3.34-1,3.78-.7,0,0-2.09,1.21-2.52,2.81,0,0,7.3-2.95,7.47-1.07,0,0,.66,3.44-2.83,7,0,0,4.64,4.5,4.84,6,0,0,.36.2.27.93a1.76,1.76,0,0,0-.11,1.74A1.3,1.3,0,0,0,28.44,77s-2.83,3.93-3.19,4.62l.27.71s9.21,9,11,15.4c0,0,.67,5.56.36,7.06,0,0,8-.5,13.28-.5l3.87.13-2,6.2,1.36,1.84a8.66,8.66,0,0,1-4.14,3.24,7.81,7.81,0,0,0-1.57,1.24s-1.26,1-5,6.69c0,0-2,3.49-2.06,6.15a22.8,22.8,0,0,0,.51,5.23S38.32,152.06,36.35,167.48Z"/></g><g id="Layer_2" data-name="Layer 2"><path class="cls-2" d="M29.1,75s-1.23,1-.78,2A55.74,55.74,0,0,1,25,81.61s9.29,9.55,11.62,15.94c0,0,.77,4.71,0,7.42,0,0,5.48-.78,19.09-.71,0,0,6.91-9.42,9.36-11,0,0,6.25-8.18,8.06-14"/><path class="cls-2" d="M45.16,72s5.42-3.1,10-1.65a2.65,2.65,0,0,1,0,2.62s-3.1,2.32-9.39,2"/><path class="cls-2" d="M48,75c-2.57-1.08-1.94-4.43-1-5.64a6.76,6.76,0,0,1,7.89-1.3"/><path class="cls-2" d="M49.27,70.37s-1.3,3,1,4.33"/><path class="cls-2" d="M48,75.74a7.82,7.82,0,0,0,7.3-.75"/><path class="cls-2" d="M47.24,76.31s2,2.14,7.07.93"/><path class="cls-2" d="M57.79,74.29A4.18,4.18,0,0,1,55.47,77"/><path class="cls-2" d="M60.55,66.6s-.1.72-1.94,2.22"/><path class="cls-2" d="M60.89,69.16a5,5,0,0,1-3.1,2"/><line class="cls-2" x1="61.23" y1="71.17" x2="59" y2="71.53"/><path class="cls-2" d="M59,72.74a2.43,2.43,0,0,1,2.23.53"/><path class="cls-2" d="M41.87,67.35C42,67,43.54,63.2,50.32,62a14.05,14.05,0,0,1,7.13,1.74l-.24.54s-5.54-2.36-8.3-1-3.43,3.37-4,4.14S41.71,67.68,41.87,67.35Z"/><path class="cls-2" d="M29.29,73s5.42-1.1,7.26,1.08a1.88,1.88,0,0,1,.29,1.6s-5.87,1.6-7.81,0"/><path class="cls-2" d="M29.35,77s3.55,2,6.84,0"/><path class="cls-2" d="M29.94,72.86a2.14,2.14,0,0,0-.59,2.79"/><path class="cls-2" d="M33,72.71a2.71,2.71,0,0,0-.2,3.62"/><path class="cls-2" d="M36.19,77.85a5.51,5.51,0,0,1-3.61,1.44"/><path class="cls-2" d="M29.35,77.85A4.26,4.26,0,0,0,31,79.3"/><path class="cls-2" d="M31.29,71.17s4.39.09,5.26,2.88"/><line class="cls-2" x1="39.42" y1="78.19" x2="38.77" y2="81.74"/><line class="cls-2" x1="41.29" y1="79.97" x2="40.06" y2="81.16"/><line class="cls-2" x1="38.26" y1="79.3" x2="37.68" y2="81.16"/><path class="cls-2" d="M70.19,67a5.49,5.49,0,0,1,1.94-1.48c1-.32,1.74-.78,1-2.65,0,0-.9-6.32,6.26-3.74"/><path class="cls-2" d="M77.55,65.42a3.23,3.23,0,0,0,0-3.81,4.13,4.13,0,0,0-4.06-1.31"/><path class="cls-2" d="M76.65,67s.89-4.91-3.26-3.36"/><path class="cls-2" d="M72.65,69.94s.84-1.8-.59-2.59a1.44,1.44,0,0,1-.27-1.65"/><path class="cls-2" d="M74.45,71.35s2.64-4.32-1.94-3.64"/><path class="cls-2" d="M24.85,67.35s4.89-2.93,8.7,1.47c0,0,1.42-.27,1.74-.69s-3.55-6.74-11.23-1.53Z"/><path class="cls-2" d="M36.91,72.86a2.44,2.44,0,0,1,1.35,2.79s-.74,6.35-4.34,7.19c0,0,.34,2.06,1.63,2.13a10.2,10.2,0,0,1,1,2.19c0,.45,2.74.45,3.13.45s2.19-1.8,2.19-1.8.78-1.36,3.81-.46c0,0,1.87-.9,1.87-1.74S45,82.9,44.71,81.74"/><path class="cls-2" d="M57.48,90.77s-11.67-3.19-13.87,4.89"/><path class="cls-3" d="M38.42,90.23,38,91.1l1.45.71.64.64h1.23l.9.45h.91l2.43.2,1.17-1L49.1,92l1.67-1.23,2-.54.82-1.07L54.89,89l.58-.69.34.37,1.64-1.27L59,87l.87-.76s-.06-1.2-2.22-1.39"/><path class="cls-2" d="M46.46,82.87a13.68,13.68,0,0,0,5.93-.64c2.51-1.07,5-1,6.22,1.64l.39.58H57.79l-.34.9L56.84,85l-.78,1.07-.79-.32v1.1l-1.66-.45v.84l-.88-.52v1.23l-1.11-.33v1l-2-.59v1.36l-1.21-.77-.26.77-.95-.26V90l-.78-.56-.3,1-1-.78-.84,1.16L43.55,90l-.32.79L41.86,90l-.57.79L40.73,90l-.67.79L39.42,90l-.65.79L38.26,90l-.58.79-.45-1.16-.68,1.16L36.19,90l-1.2.79V89l-.6.58V88.45l-1.1,1-.32-1-.78.32A4.46,4.46,0,0,1,35.63,85s-1-1-.52-1.19a14.48,14.48,0,0,0,1.71-1.57"/><line class="cls-2" x1="43.61" y1="86.18" x2="44.26" y2="88.71"/><line class="cls-2" x1="44.77" y1="86.71" x2="46.29" y2="89.98"/><line class="cls-2" x1="46.16" y1="87.44" x2="47.24" y2="89.16"/><line class="cls-2" x1="50.52" y1="86.18" x2="52.24" y2="87.79"/><line class="cls-2" x1="50.32" y1="85.16" x2="52.73" y2="86.71"/><line class="cls-2" x1="51.52" y1="84.84" x2="53.1" y2="85.16"/><line class="cls-2" x1="53.1" y1="83.74" x2="55.27" y2="85.74"/><line class="cls-2" x1="55.81" y1="83.74" x2="56.84" y2="84.99"/><line class="cls-2" x1="36.91" y1="88.3" x2="36.19" y2="89.98"/><line class="cls-2" x1="38.77" y1="88.71" x2="38.77" y2="90.77"/><line class="cls-2" x1="35.61" y1="85.74" x2="34.39" y2="86.71"/><line class="cls-2" x1="36.19" y1="86.71" x2="34.99" y2="89.03"/><line class="cls-2" x1="47.55" y1="83.61" x2="49.1" y2="84.37"/><line class="cls-2" x1="40.06" y1="90.77" x2="39.42" y2="91.81"/><line class="cls-2" x1="41.29" y1="90.77" x2="41.29" y2="92.45"/><line class="cls-2" x1="43.23" y1="90.77" x2="43.1" y2="92.9"/><line class="cls-2" x1="46.16" y1="90.39" x2="46.7" y2="92.06"/><line class="cls-2" x1="49.22" y1="89.14" x2="49.1" y2="92"/><line class="cls-2" x1="51.62" y1="88.65" x2="52.73" y2="90.23"/><line class="cls-2" x1="53.61" y1="87.23" x2="54.89" y2="89.03"/><line class="cls-2" x1="56.06" y1="86.06" x2="55.81" y2="88.71"/><line class="cls-2" x1="57.45" y1="85.35" x2="57.79" y2="87.34"/><path class="cls-2" d="M40.06,95.35s3.53,5.68,16.57-3.74c0,0,6.86-6.28,1.86-6.62"/><path class="cls-2" d="M40.39,92.45s2.35,2.42,1.69,4.28"/><polyline class="cls-2" points="50.77 95.21 46.7 96 43.1 95.61 42.84 96.73"/><line class="cls-2" x1="43.94" y1="97.05" x2="44.26" y2="95.73"/><line class="cls-2" x1="46.7" y1="96" x2="46.43" y2="96.73"/><path class="cls-2" d="M39.74,96.39s.91,2.77,5.42,2.64a27.6,27.6,0,0,0,10.9-4.44s.78-.74,3.52-4"/><path class="cls-2" d="M45.16,101.68a2.29,2.29,0,0,1,.44,2.7"/><path class="cls-2" d="M56.63,103.06a12.67,12.67,0,0,1,5.66,1.32"/><path class="cls-2" d="M77,74.52a7.68,7.68,0,0,0,4.45,3.67"/><path class="cls-2" d="M63.94,84s-1.75,1.85-.88,3.24"/><path class="cls-2" d="M105.55,93.1c-15.49-.26-30.34,25.8-30.34,25.8a39.07,39.07,0,0,0-2.95-6.9c-1.57-2.73-3.6-4.79-5.61-2.77H64.9"/><path class="cls-2" d="M46.81,165.94c.19-1,10-45.49,10-45.49s3.13,2.61,9.22.78l-.58,43.93Z"/><path class="cls-2" d="M96.06,127.52s8.14-25.19,35.09-22.23"/><path class="cls-2" d="M103.81,106.71s-4.94,1.74-7.75,8.9"/><path class="cls-2" d="M105.55,103.42s-13.16-.58-15,28.26"/><path class="cls-2" d="M88.52,115.61s-5.23,10,1.35,18.78"/><path class="cls-2" d="M101.1,121.71a10.92,10.92,0,0,0-1.94,7s.58,1.55,0,4.93,3.11,4.07,3.11,4.07,1,5.32,3.28,8.22,4.84,16.07,4.06,19.16c0,0,32.23,3.1,33.49,2.91a48.83,48.83,0,0,0,5.61-2c-4.06-36.78-15.29-56.71-15.29-56.71-5.81-13.94-27.87-16.13-27.87-16.13-2.9-7.81-6.2-8.36-6.2-8.36C83.1,77.1,64.9,109.23,64.9,109.23l-4.35,1.54-4.62.24c0,.61,0,1.22.06,1.84a61.25,61.25,0,0,0,.85,7.6s2.35,2.42,9.22.78l6.84-8"/><path class="cls-2" d="M54.25,104.25l-2.07,6.33a7,7,0,0,1,4,.58"/><path class="cls-2" d="M48.92,140.58c-.57-.77-5.21-6.41-6.08-17"/><path class="cls-2" d="M42.2,130.9s2.12,6.78,5.35,9.2"/><path class="cls-2" d="M45.88,140.1s-3.43,23.22-1,26.71l-8-.87c.12-1.37,1.48-20.52,4.38-31,0,0-1.16-5.32,0-8.32,0,0,4.61-10,7.63-10.65a17.14,17.14,0,0,0,4.69-3.58l-1.43-1.84"/><path class="cls-2" d="M29.35,73.52l-.29-1c-1.14-2.37-5-5.93-5-5.93,3.55-3.79,2.78-7.44,2.78-7.44-1.19-.9-7.42,1.49-7.42,1.49.1-1.65,2.52-2.81,2.52-2.81a10.61,10.61,0,0,0-3.78.7c-.1-1,3.19-3.4,3.19-3.4A13.56,13.56,0,0,0,17,55.9l1.16-2.13c-1-1.06-2.81-.48-2.81-.48,0-1.64,2.13-3.39,2.13-3.39-1.16-4.35-7.06-6.77-7.06-6.77,4.93-.48,7.16,1.52,7.16,1.52-2.9-2-1.16-5.59-1.16-5.59a7.47,7.47,0,0,0,6.39,3.39c2.05,0,1.25-1.64,1.25-1.64,2.71-.39.39-2.23.39-2.23-3.19-2.23-10.35-.19-10.35-.19,1.25-3.1,5.71-4.07,5.71-4.07-1.75-.87-6.58-.48-6.58-.48,8.32-4.26,13.48-2.61,13.48-2.61-2.39-2-3.13-1.46-3.13-1.46a7.07,7.07,0,0,1,4.84-1.83c-.39-1.36-4.36-2.62-4.36-2.62,4.55-.09,6.78,2.23,6.78,2.23,4.45,1.84,7.06-.82,7.06-.82A11.89,11.89,0,0,1,35.63,16c1.69,2.32,5.47,4.12,5.47,4.12,6.67-2.13,9.67,2,9.67,2-1.64-3.29,0-9.19,0-9.19.29,2.51,5.33,7.74,5.33,7.74.38-5.42,1.69-6.2,1.69-6.2.92,4.36,5,8,5,8a27.24,27.24,0,0,1,18.63,9.87c8.42,11.71,3.78,29.55,3.78,29.55v8.23l-2.13.2.48,2.6-2.13.55,2.13,2.84"/><path class="cls-2" d="M64.71,55.14c.29.18,4.35,1,6,4.25,0,0-1.16-7.16-10.16-6.68a8.22,8.22,0,0,1,8.8,1.35s-2.12-5.41-11.56-2.71c0,0-4.93,3-6.27,6.3a4.85,4.85,0,0,1,2.67-4.07s-4.93,2.47-5.09,5a4.25,4.25,0,0,1,1.67-4.19c2.23-1.54-2.93.84-4.06,5a5.6,5.6,0,0,1,1.13-4.2s-8.36-1.13-9.58-11.77c0,0,1.77,3.39,4,3.68,0,0-3.6-3-.4-8.62,0,0,1.13,6,4.3,7,0,0-3.32-3.19-1.29-7,0,0,.23,5.36,3.45,6.17"/><path class="cls-2" d="M64.42,56.77s4.93,1.65,6.29,4.17"/><path class="cls-2" d="M64.9,59.39s3.85,1.86,5.29,4.45"/><path class="cls-2" d="M67,61.94s2.74,1.48,3.16,3.48"/><path class="cls-2" d="M69.74,66.6s1.36-4.58,1-6.54c0,0,4.45-9,10.58-2.71,0,0,5.16,5.69,0,12.82,0,0-3.35,5.94-7.74,4.82"/><path class="cls-2" d="M47,56.77C27.06,64.9,24.06,49.9,24.06,49.9s2.13,4.07,8.13,6.2"/><path class="cls-2" d="M26.84,59.16a8,8,0,0,1,5.74-.31"/><path class="cls-2" d="M55.47,38s-7,1.73-4.09-8.81c0,0,3.08,6.29,5.25,6.49,0,0-3.28-3.1-2.15-6.49"/><path class="cls-2" d="M41.29,35.39s-6-3.39-1.87-9c0,0,.56,3.67,1.31,4.06,0,0-.13-2.8,1.13-4.06L43,28.71"/><path class="cls-2" d="M32.19,34.61a9.43,9.43,0,0,0-2.69-1.35s2.3-3.19,7.41,1.35l-2.52-2.44s2.59-1.43,5,2.44"/><path class="cls-2" d="M35.31,52.23s-2.47-.29-1.39-5.71c0,0-2.69,3.29-.27,6.29,0,0-1.94-4.07-5.81-5.33a33.55,33.55,0,0,1,4.74,5.33"/><path class="cls-2" d="M17.48,49.9s2.55-2.42,9.36-1.64"/><path class="cls-2" d="M35.31,17.54s.88,5.17,4.11,6.72"/><path class="cls-2" d="M35.63,16s2.32,5.91,5.1,6.78"/><path class="cls-2" d="M25,40.5s6.07-.56,8.89,1.08"/><path class="cls-2" d="M68.11,52.43s8.16-1.74,9.11,2.71"/><path class="cls-2" d="M69.12,53.61s6-.68,6.09,1.87"/><path class="cls-2" d="M78.74,52.09s3.8,2.74,3.74,7.1"/><path class="cls-2" d="M74.81,46.52s12.13,4.22,8.61,15.42"/><path class="cls-2" d="M78.74,42.35s6.94,2,4.34,11.26"/><line class="cls-2" x1="70.56" y1="85" x2="60.11" y2="103.55"/><path class="cls-2" d="M53.61,112.42a23.35,23.35,0,0,1,1.28,7.45L56.46,118"/><path class="cls-2" d="M95.1,83.61c-1.16-.06-7.16-8.48-7.16-8.48l-4.36,1.23c-10.73,7.39-24.24,32.87-24.24,32.87l-.2.45-1.35-1.06.48-5.46"/></g></svg>