<svg xmlns="http://www.w3.org/2000/svg" viewBox="0 0 164.57 164.57"><defs><style>.cls-1{fill:#e7282c;}.cls-2{fill:none;stroke:#231f20;stroke-miterlimit:10;stroke-width:0.5px;}</style></defs><g id="Layer_3" data-name="Layer 3"><path class="cls-1" d="M-.26,169.58s1.84-4.29,1.84-4.42.39-2.39.39-2.39l-.87-6.45,11.48-6-1.93-7.9h1.54L10.65,139h2.58L8.84,127.71l2.19.87v-1.93l1.42,1.06L11,121.43l2.84,1.65.26-10.37L16.32,114l-3-6.72,2.07.17L11,94.42l4.65,2.68V94.42l2.06,1.75-.51-3.7L19,93.74V90.32l1.55,1.57V83.81l5.16,8.08.52-2.2,1.42,2.78,1.42-4.53,2.71,2.38,1.54-3.42,3.39,5v-5l2.94,4.52.51-2.32,5.42,1.22V89.1l2.66,1.22,3.86-3.45-4.84,1.26.92-2.42L42.84,87l3.48-3.39-9.58-2.21,8.42-.47,1.65-1.08-2.42-.69,2.71-2.42-4.75-1.65L46,74.19,40.42,61.81s8.72,7.93,8.61,7.54l-.82-2.8,4.65.77L51.65,65.1l1.74,1-2.52-3.29,2.61.49V60l2.42,3.29V61.13l2.36,2.52-.81-3.1,3,3.58V62.77l3-.87-1.86-3.09,4.92,2.61.69-.87L65.9,57V47l3.87,9.68,3.46,4.64L71.65,53l5.45,7.94V58.71L80,61.42l-.88-2.16L79.41,56l.37-.86.48,2.61.95,1.81,1.25,1.75,2.92.2-.9-1.46-.32-2.25.52-1.69L85.11,55l.27,2.83,1,2,1.87,1.72,3,.87s5.93.55,9,4h0l1.21-2.32,2,2.52,1.93-1.07,1.46,2.61,2.06-2.61v1.55l1.23,1.35,3.09-1.35-1.71,2.93,1.52.07.48,1.45H115l.2,1.94,3.48-1.36-1.94,3.39,1.36-.58-.87,2.51s2.25,6.07-2.08,9.49h0l.45.51s2.11-1.61,4.05,1.13h0L123,91.42s4-3.75,4.13-3.48l.9,2.38,5.29-1.22.52,2.32,6.32-3.48v1.74l3,.64,1.68-1.22v1.22l5.55-2.38V89.1l4.26-1.16-1.3,7.22,2.59,1-2.71,2.24,2.71,1.53-2.46,3.94,2.46-.56-1.68,2.48,5.42-.59-5.94,6L157,112l-3,2.92,1.55.69-2.71,3.82,5-.11-4.52,6.18,1.94-.9-2.19,7.06,1.93-.87.52,9.42,4.13-2.84-2.2,8.13,1.68.65L157.1,151h2.06l-2.06,5.81h1.42l-.39,2.59,9.42,4-3.61,7Z"/></g><g id="Layer_2" data-name="Layer 2"><path class="cls-2" d="M56.7,96.17S47,103.81,58.42,109c0,0,16.35,1.07,15.68-8.61"/><path class="cls-2" d="M85.9,101.19s-3.77,7.16,9,8.91c0,0,11.71,1.2,10.84-7.48,0,0,.2-3.36-5.22-5"/><path class="cls-2" d="M76.71,103.32s-4.89,1.65-2.59,9.87l-2.73-.87-.39,3.2,7.55,1.83h2.51l6.59-3.09-1-2.52-3.39,2.32s2.73-6.87-1-9.48"/><polyline class="cls-2" points="78.36 106.23 77.68 113.97 80 113.97 79.32 111.74"/><polyline class="cls-2" points="83.92 111.92 92.77 110.34 98.48 113.97 95.58 113.29 96.64 115.9 94.61 115.9 95.58 117.36 92.77 115.9 92.29 118.03 89.58 115.9 90.16 119.68 89 118.61 89 119.68 87.64 117.36 86.48 118.81 83.77 117.74 83.19 120.26 81.55 119.39 80.77 120.84 80 118.81 76.9 119.58 75.94 117.74 74.97 119.58 74.12 119 72.26 119.58 72.26 117.36 68.58 119.58 68.58 117.94 66.55 118.42 67.81 116.77 64.81 116.77 65.68 115.32 59.77 115.32 67.81 110.97 73.94 112.51"/><path class="cls-2" d="M92.56,116.84c3,1-.27,5.45-.27,5.45-7.64,5.9-10-1.45-10-1.45l-.74-1.45"/><path class="cls-2" d="M87.22,117.89s2.07,1.25,1.49,2.82"/><path class="cls-2" d="M64.81,116.77s-5,2.81-2.42,4.94c0,0,1.79,1.64,5-.87,0,0,10.09-.87,14.87,0"/><path class="cls-2" d="M93.15,120.84s6.3,1,4.08-3c0,0,.51-.78-2-1.12"/><line class="cls-2" x1="69.77" y1="118.86" x2="68.68" y2="120.71"/><line class="cls-2" x1="72.26" y1="119.58" x2="72.26" y2="120.54"/><line class="cls-2" x1="75.35" y1="118.86" x2="75.35" y2="120.06"/><line class="cls-2" x1="78.03" y1="119.3" x2="78.03" y2="120.47"/><path class="cls-2" d="M65.9,116.77l.65,1.65A4.74,4.74,0,0,0,65.26,122"/><path class="cls-2" d="M62.39,121.71s-.22-3.14,1.1-4"/><path class="cls-2" d="M93.82,116.44s1.57,3.43,1,4.4"/><line class="cls-2" x1="97.06" y1="117.35" x2="96.91" y2="120.54"/><path class="cls-2" d="M73.23,105.55a16.36,16.36,0,0,1-15.78,5.22"/><path class="cls-2" d="M84.65,105.55s4.45,7.26,17.8,4.79"/><path class="cls-2" d="M108.84,99.94a2.73,2.73,0,0,1-1.36,2.68"/><line class="cls-2" x1="108.87" y1="103.32" x2="107.48" y2="103.88"/><path class="cls-2" d="M107.48,104.87a1.94,1.94,0,0,1,1.39.68"/><path class="cls-2" d="M50.87,94.42s-3.73,24,6.58,29.15a6.11,6.11,0,0,0,.58.27c11,4.55,13.55,4.64,18.29,5.71l11.36-1s15.55-2.42,23.58-15.68c0,0,1.64-11.32.58-18.48"/><line class="cls-2" x1="69.23" y1="123.65" x2="73.23" y2="122.58"/><path class="cls-2" d="M74.12,124.23s2.51-1.17,3.91-.58"/><path class="cls-2" d="M74.87,125.48s1.94-.67,2.23-1.83"/><line class="cls-2" x1="80.87" y1="123.11" x2="84.05" y2="123.48"/><path class="cls-2" d="M98.48,116.84s3.55,5.63-3.54,5.2"/><path class="cls-2" d="M59.77,119.79s-.23,4.83,6.13,2.79"/><path class="cls-2" d="M101.77,104.87s-2.61-1.84-3.29,1.36c0,0,.39,1.93,3.29.48A1.68,1.68,0,0,0,101.77,104.87Z"/><path class="cls-2" d="M57.45,99.94s-1.64.36-.77,1.34c0,0,.48,1,1.55,0A1.09,1.09,0,0,0,57.45,99.94Z"/><line class="cls-2" x1="62.84" y1="106.23" x2="65.25" y2="108.61"/><path class="cls-2" d="M64.71,105.55s2.86,2.09,5.06,1.69"/><path class="cls-2" d="M66.55,103.88s5.92,1.55,6.3,1"/><line class="cls-2" x1="69.23" y1="102.16" x2="74.08" y2="101.7"/><line class="cls-2" x1="59.77" y1="107.42" x2="61.13" y2="108.61"/><path class="cls-2" d="M89.77,102.16a33.76,33.76,0,0,1-4.39,0"/><line class="cls-2" x1="88.02" y1="103.6" x2="85.38" y2="103.6"/><line class="cls-2" x1="89.39" y1="105.21" x2="86.37" y2="106.42"/><path class="cls-2" d="M91.23,107.42c-.29.06-2.73.78-2.73.78"/><line class="cls-2" x1="95.59" y1="109.07" x2="92.54" y2="109.67"/><path class="cls-2" d="M65.34,76.42c1.9-1,23.47-3.77,23.47-3.77a12,12,0,0,0-8.81,8c2.23-3.39,11.23-7.26,11.23-7.26s11.12,2.23,17.64,5.13,2.29,7,2.29,7c9.39,1.35,2.32,7.64,2.32,7.64-29.42,17-60.62,2-60.62,2-10-1.93-.73-8.32-.73-8.32s-6.58-5.13,3.1-8.61C55.23,78.26,63.44,77.45,65.34,76.42Z"/><path class="cls-2" d="M55.9,89.1c.29.19,12.29,4.64,23.23,4.64"/><path class="cls-2" d="M82.12,93.74c.59-.09,18.88-2.26,27.59-6.84"/><path class="cls-2" d="M56.42,79.9s25.33,5,38,1.94"/><path class="cls-2" d="M105.79,78.74s-7.45,2.42-8.64,2.13"/><path class="cls-2" d="M111.78,108.35c.74-.77,11.09-7.83,7.9-19.74,0,0-1.81-2.84-4.05-1.13s-.45-.51-.45-.51,4.5-1.45,2.08-9.49l.87-2.51-1.36.58,1.94-3.39-3.48,1.36-.2-1.94h-1.55L113,70.13h-1.22l1.41-3-3.09,1.35-1.23-1.35V65.58l-2.06,2.61-1.46-2.61-1.93,1.07-2-2.52-1.21,2.32s-1.87-3.19-9-4-5.85-8-5.85-8-2.55,4.55,0,7.07l-2.92-.2S79,57.26,80,54.94s-.17-.49-.17-.49-1.77,5.23.17,7l-2.9-2.71v2.23L71.65,53l1.58,8.32-3.46-4.64L65.9,47V57l1.34,3.58-.69.87-4.92-2.61,1.86,3.09-3,.87v1.36l-2.19-2.42-.81-1.16.81,3.1L55.9,61.13v2.13L53.48,60v3.29l-2.61-.49,2.52,3.29-1.74-1,1.21,2.22-4.65-.77.82,2.8-8.61-7.54L46,74.19l-3.68.87,4.75,1.65-2.71,2.42,2.42.69L45.16,80.9l-8.42.47,9.58,2.21L42.84,87l5.37-1.26-.92,2.42,4.84-1.26"/><path class="cls-2" d="M50.21,104.34s-5.34-.32-3.5-8.17l1.56-3.7"/><path class="cls-2" d="M112.2,104.87a8.75,8.75,0,0,0,4.77-8.7s-.2-5-2.38-4.2"/><path class="cls-2" d="M71.65,128.54a9.9,9.9,0,0,0,2.46,3.1,9.4,9.4,0,0,0,6.76,2.17s6.59-.29,7.94-1.84l2.42-4.26"/><path class="cls-2" d="M67.9,164.57a31.19,31.19,0,0,0,3.1-3.09l-3.48,1.17.77-2.62-3,1.07,5.17-4.55H68.68l1-4.55H67.52l1.71-2.52-6.86,2.42,6.31-8.71-2.78.68,5.1-5.81-7,.88,8.21-5.11-2.56-.41,4.41-1.78"/><polyline class="cls-2" points="88.81 131.97 92.54 135.55 89.77 135.55 92.54 140.77 88.5 138.26 94.38 148.1 89.86 147.35 93.82 156.84 91.44 156.06 95.92 160.42 89.39 162.45 92.21 164.97"/><polyline class="cls-2" points="12.19 149.61 10.64 142.39 12.19 142.39 10.64 139.03 13.23 139.03 8.84 127.71 11.03 128.58 11.03 126.64 12.45 127.71 11.03 121.43 13.87 123.08 14.13 112.71 16.32 113.97 13.36 107.25 15.42 107.42 11.03 94.42 15.68 97.1 15.68 94.42 17.74 96.17 17.23 92.47 19.03 93.74 19.03 90.32 20.58 91.89 20.58 83.81 25.74 91.89 26.26 89.69 27.68 92.47 29.1 87.94 31.81 90.32 33.35 86.9 36.74 91.89 36.74 86.9 39.68 91.42 40.19 89.1 45.61 90.32 45.61 89.1 48.27 90.32"/><polyline class="cls-2" points="119.68 88.61 123.03 91.42 127.16 87.94 128.06 90.32 133.35 89.1 133.87 91.42 140.19 87.94 140.19 89.68 143.16 90.32 144.84 89.1 144.84 90.32 150.39 87.94 150.39 89.1 154.65 87.94 153.35 95.16 155.94 96.17 153.23 98.41 155.94 99.94 153.48 103.88 155.94 103.32 154.26 105.8 159.68 105.21 153.74 111.16 156.97 111.98 154 114.9 155.55 115.59 152.84 119.41 157.87 119.3 153.35 125.48 155.29 124.58 153.1 131.63 155.03 130.77 155.55 140.19 159.68 137.35 157.48 145.48 159.16 146.13 157.1 151.03 159.16 151.03 157.1 156.84 158.52 156.84 158.52 158.26 159.27 160.15"/><path class="cls-2" d="M2,165l-.9-8.65s16.77-11.06,24.9-7.85l4.9,16.1s-21.65,5.92-22.06,5.19S2,165,2,165Z"/><path class="cls-2" d="M12.19,156.43c.39.15,15.46-2.54,15.46-2.54"/><line class="cls-2" x1="17.1" y1="162.13" x2="29.43" y2="159.74"/><path class="cls-2" d="M12.19,150.46s-.74-5.49,17.24-9.62l5.6,13s-3.66,3.75-6.48,3"/><path class="cls-2" d="M34.09,151.69c-1.85-.37-5.12,2.2-5.12,2.2s-3.32-5.6.16-7.31c0,0,2.22-.75,2.81,1.3Z"/><polyline class="cls-2" points="164.57 162.13 156.45 159.74 147.53 158.26 141.39 164.97"/><path class="cls-2" d="M137.86,164.57s7.62-13.33,11.53-10.68l11.12,7.05"/></g></svg>