<svg xmlns="http://www.w3.org/2000/svg" viewBox="0 0 164.57 164.57"><defs><style>.cls-1{fill:#e7282c;}.cls-1,.cls-2,.cls-3,.cls-4,.cls-5{stroke:#231f20;stroke-miterlimit:10;stroke-width:0.5px;}.cls-2{fill:none;}.cls-3{fill:#ed1e24;}.cls-4{fill:#ec2227;}.cls-5{fill:#e8272b;}</style></defs><g id="Trustee"><path class="cls-1" d="M49.48,100.13s-4.64,2-12,7.68a71.42,71.42,0,0,0-21.42,7.51s-6.32,1.13-8.25,3.45c0,0-3,6.07-1,10.39a9.29,9.29,0,0,0-.12,7.68s-3.88,13.68-2.71,17.81a54.22,54.22,0,0,0-3,11l156.68.89h1.12S157.23,151,154,144.19a37,37,0,0,0-.65-17.16c-.25-.9,3.23-7.3-9.8-11.65a122.54,122.54,0,0,0-15.87-5.07s-6.5-6.06-23.34-9.34C103.68,100.84,49.48,100.13,49.48,100.13Z"/><path class="cls-1" d="M56.58,96.49l-5.71,1A83.83,83.83,0,0,1,44.68,112s11.42,15,25.84,17.13c0,0-1.7-9.1,8.68-9.87,0,0,9.37-.29,8.33,9.87,0,0,18.12-4.84,26.53-14.51,0,0-4.77-10.65-3.79-13.94,0,0-.67-2.81-7.69-4.63"/><path class="cls-1" d="M102.06,109v-4.21l1.1-18.58L87.53,81.45,58.62,83.29l-2.32-.1.28,3.68V103c-.14,1-.27,2-.41,3.08"/><path class="cls-2" d="M102.49,97.52c5.94,1.74,6.42,3.48,6.42,3.48.94,3.87-10.14,10-10.14,10-18.87,9.82-36.19,0-36.19,0-13.84-9.54-10.35-12.34-10.35-12.34.29-.87,3.87-1.16,3.87-1.16h.48"/><path class="cls-1" d="M61.6,46.8s-8.35,7.26-8,17.61.91,11.8.91,11.8l4,15.6s11.25,12,19.42,11.07l6.9.05s16.68-5.23,18.33-16.74c.18-1.27,3.63-12.71,3.63-12.71l2-9.07S111,49.16,97.35,45.17C97.35,45.17,79.56,35.73,61.6,46.8Z"/><path class="cls-3" d="M73.52,70.23s-9.78-3.45-12.1,2c0,0-3.77,6.27,6,6.95,0,0,6.24.1,6.53-5.52A6.23,6.23,0,0,0,73.52,70.23Z"/><path class="cls-4" d="M90.74,69.14S86,72.35,88,76c0,0,2.71,5.28,11,0,0,0,4.07-4.84-2.9-7.84C96.16,68.19,92.35,67.69,90.74,69.14Z"/><path class="cls-1" d="M67.67,70.9s-1.8,2.94,3.81,2.34c0,0,2.91-1.47,0-3.3S67.67,70.9,67.67,70.9Z"/><path class="cls-2" d="M90,72.18s-.2,3.06,3.19,1.95c0,0,2-.64.72-3.23,0,0-.61-1.25-1.73-1.16A2.23,2.23,0,0,0,90,72.18Z"/><path class="cls-1" d="M88.23,67c-.27,0-1.75,3.86-1.75,3.86l4.07-.48s6.87-1.36,10.45-3.77h2.71s-1.45-1.75-8.61-1C95.1,65.68,93,67,88.23,67Z"/><path class="cls-1" d="M59.6,62.78s3.45,6.35,15.24,8.53l.9-1V67H73.13S68.23,63.75,59.6,62.78Z"/><path class="cls-1" d="M74.49,86.87l-6.2-.39s-3.77,3.29-3.77,4.75c0,0,6.37,2.22,6.67,2.22s1,.87,1.35.87,5.87-1,5.87-1l4.49,1,4.63-.67,4.42-.2s.82-.68,1.93-1.45c0,0-.53-1.84-3.58-5.13l-6.44-.39"/><path class="cls-5" d="M77,72.18s-2.71,3.76-2,12.37c0,0-4-2.9-3.78.87A15.59,15.59,0,0,1,77,88.71h3.1s3.87-2.9,7-3.19c0,0,.29-3.39-4-1.07a27.14,27.14,0,0,0-.81-12.27"/><path class="cls-2" d="M78.06,74.37s.78,9.31,0,12.11c0,0-.38.87-1.35,0"/><path class="cls-2" d="M59.6,77.19c.46.39,3.26,6.87,12.94,0"/><path class="cls-2" d="M101,75.16c-.29-.1-2.68,8.58-10.7,2.8"/><path class="cls-2" d="M84.26,67c-.49.67-1.3,3.36,2.22,3.86"/><path class="cls-2" d="M83,69s-.71,1.77,1.63,1.24"/><path class="cls-2" d="M77.56,64.9a20,20,0,0,0,0,4.07l-1.82.67"/><polyline class="cls-2" points="79.13 67.04 79.13 69.31 78.41 70.31"/><path class="cls-2" d="M81.74,68.11s-2.24,1.3,1.16,3.21"/><path class="cls-2" d="M105,70.31a4.5,4.5,0,0,0-1.26,1.87l-1.26.56"/><polyline class="cls-2" points="103.71 73.71 104.97 73.24 104.97 73.71"/><polyline class="cls-2" points="102.06 74.37 102.45 75.16 103.71 75.16"/><path class="cls-2" d="M57.65,71.52s.71,1.76,2,2"/><path class="cls-2" d="M56.58,72.74s.79,2.31,2,2"/><line class="cls-2" x1="56.58" y1="77.19" x2="58.62" y2="76.13"/><path class="cls-2" d="M90,84.45s4.55-.68,3.92,2.42"/><line class="cls-2" x1="70.09" y1="86.87" x2="65.79" y2="91.67"/><line class="cls-2" x1="74.05" y1="86.84" x2="69.64" y2="92.98"/><line class="cls-2" x1="77" y1="88.71" x2="75.74" y2="93.81"/><line class="cls-2" x1="77.56" y1="88.71" x2="77" y2="93.6"/><line class="cls-2" x1="78.77" y1="88.71" x2="78.41" y2="93.35"/><line class="cls-2" x1="82.9" y1="86.96" x2="82.9" y2="94.32"/><line class="cls-2" x1="84.63" y1="86.53" x2="85.8" y2="93.9"/><line class="cls-2" x1="87.53" y1="86.7" x2="89.96" y2="93.54"/><line class="cls-2" x1="88.74" y1="86.78" x2="91.03" y2="93.49"/><line class="cls-2" x1="91.03" y1="87.69" x2="93.1" y2="92.56"/><path class="cls-2" d="M72.77,95.29s3,.48,4.51-.39c0,0-4.46,2.33-6.09,1.26"/><path class="cls-2" d="M79.61,95.67a30,30,0,0,0,7.46.77"/><path class="cls-2" d="M79.2,96.44a14.45,14.45,0,0,0,3.7,1.08h2.9"/><path class="cls-2" d="M75.16,97s.69.43,3.25,0"/><path class="cls-2" d="M76.65,99.55a8.62,8.62,0,0,1,5.31.58"/><path class="cls-2" d="M76.37,102.91c3.82-.7,3.24-1.33,3.24-1.33a6.92,6.92,0,0,0,5.22,1.35"/><path class="cls-2" d="M61.52,56.58s12,.29,18.09,4.36c0,0,2.57,1.45,7.92-.39A43,43,0,0,1,101,57.94"/><path class="cls-2" d="M70.52,53.19a25.76,25.76,0,0,1,9.09,2.42c4.55,2.23,9.1-1.06,11.81,0"/><path class="cls-2" d="M58.62,85c.09.29,3.09.58,5.32,9.87"/><path class="cls-2" d="M101,86.48c-.68.1-6.49,5.91-7.12,9.19"/><path class="cls-1" d="M108.83,63.94l5-.59s.68,0,.68.59V74.37l-4.26,2.29-4.3-.53"/><path class="cls-1" d="M53.6,63.35,48,60.84l-.49.64L46,74.13s5.91,2.58,6.49,2.53a17.06,17.06,0,0,0,2-.45"/><path class="cls-2" d="M62.58,98.68s5.44,11.22,4.8,14.61"/><path class="cls-2" d="M70.52,106s4.35,5.57,5.22,8.67"/><path class="cls-2" d="M85.21,106.71s-3.18,4.55-3.95,5.9"/><path class="cls-2" d="M95.1,100.13s-5.12,8.72-5.91,13.16"/><path class="cls-2" d="M75.16,106.71s1.36,1.84,1.21,3c0,0-1.15,2.86,1.19,3,0,0,1,.72.41,2.71"/><path class="cls-2" d="M10.75,124.9s3.11,5.89,5.66,8.42"/><path class="cls-2" d="M17.5,136.21s-.73,3.65,0,4.74"/><path class="cls-2" d="M8.2,121.25s.55,8.39,2.55,9.85"/><path class="cls-2" d="M13.58,133.32s.82,8,2.83,10.92"/><path class="cls-2" d="M9.48,141s5.55,3.76,4.78,5.82"/><path class="cls-2" d="M7.29,131.1s2.88,5.75.91,6.51"/><line class="cls-2" x1="16.41" y1="148.06" x2="15" y2="165.69"/><path class="cls-2" d="M15,149c0,.38,0,4.9.91,5.29"/><path class="cls-2" d="M152.54,129.11s-3.65,7.65,0,10.38"/><path class="cls-2" d="M152.54,145.52s-.24,2.8-.81,3.06c0,0-.85,3.61,0,4.52"/><path class="cls-2" d="M155,149.31a4.06,4.06,0,0,1-.64,2.75"/><path class="cls-2" d="M150.26,122.77c-.26,2.46-1.41,11.77-5.29,14.2-1,.64-.39,4.26-2.2,4.13"/><path class="cls-2" d="M149,135.94a7.21,7.21,0,0,1-3.49,5.16l-2.71,4.42"/><path class="cls-2" d="M148.45,142.26a24.43,24.43,0,0,1-1.93,9.16"/><path class="cls-2" d="M147.48,152.06s.84-2.32,0-3.22"/><line class="cls-2" x1="141.61" y1="148.06" x2="142.77" y2="167.03"/><line class="cls-2" x1="143.29" y1="148.06" x2="141.92" y2="153.1"/><path class="cls-2" d="M27.16,155s10.2,2.86,13,6.84"/><path class="cls-2" d="M24.84,159.68s3.35-.13,4.51,1.16"/><path class="cls-2" d="M142.77,155s3.62-3.87,2.46,5.81"/><path class="cls-2" d="M70.69,125.44c0,.17,1.12,5.38,5,7.88a8,8,0,0,1,6.22,0s4.38-3.64,5.57-7c0,0-.16-7-8.33-7C79.2,119.29,72.15,119.32,70.69,125.44Z"/><path class="cls-2" d="M67.43,167.81l8.31-34.49a8.77,8.77,0,0,1,6.22,0L91,167.81Z"/><path class="cls-2" d="M79.11,142.26c-.34.26-.52,6.58-.52,6.58"/><line class="cls-2" x1="79.87" y1="148.06" x2="80.4" y2="150.29"/><line class="cls-2" x1="78.77" y1="150.58" x2="78.59" y2="153.1"/><path class="cls-2" d="M78.41,133.32s-2.64,12.16-2,11.65"/><path class="cls-1" d="M48.45,37.1s-2,11.61,19,10.32,38.69-4.52,38.56,8l2.07.48,3.62-6.42S112.55,37.1,100.24,34c0,0-20.18-4.26-39.53,0,0,0-2.22.9-3.11,5.68C57.6,39.68,52.45,43,48.45,37.1Z"/><path class="cls-1" d="M110.27,63.35l-2.08,9.39H106l2.14-8.55-2.14.13,2.07-8.42,3.62-6.42s5.89,1,0,14.13Z"/><path class="cls-1" d="M55.18,46.2c-.44-.19-5.72,7-4.23,16l1.35.61s-.72,8.81.64,10.46l2.24.24-1.55-10.7A23.86,23.86,0,0,1,61,47.38,28.69,28.69,0,0,1,55.18,46.2Z"/></g></svg>