<svg width="195" height="201" viewBox="0 0 195 201" fill="none" xmlns="http://www.w3.org/2000/svg">
<path d="M25.2135 199.776C24.4303 194.238 22.4519 188.813 19.9571 183.85C18.6586 181.266 17.1665 178.795 15.7216 176.296C14.2506 173.753 12.931 171.154 11.7297 168.466C10.5525 165.83 9.3081 163.261 7.85113 160.774C6.46234 158.404 4.99934 156.07 3.83116 153.573C2.5988 150.938 1.79862 148.093 1.55195 145.178C1.45067 143.978 1.23207 142.385 2.04028 141.381C2.64593 140.63 3.73491 140.461 4.62132 140.63C7.3257 141.147 8.5751 144.511 9.53271 146.792C10.1494 148.262 10.6989 149.762 11.1782 151.285C11.6816 152.885 12.0335 154.528 12.5299 156.128C12.7665 156.891 14.044 156.753 13.9397 155.895C13.5677 152.849 12.4707 149.806 11.3296 146.983C10.3299 144.508 9.24192 141.656 7.04994 140.033C5.32123 138.753 2.55368 138.517 1.01147 140.263C0.134078 141.255 -0.0283702 142.622 0.00371736 143.91C0.042824 145.46 0.249389 147.015 0.572269 148.529C1.83271 154.447 5.45559 159.206 8.20709 164.43C9.67911 167.224 10.8172 170.187 12.2471 173.004C13.6349 175.738 15.2523 178.338 16.7715 180.995C18.4661 183.959 19.9632 187.02 21.2818 190.177C22.6014 193.337 23.6532 196.605 24.7292 199.858C24.8164 200.112 25.2556 200.072 25.2135 199.776Z" fill="#332B23"/>
<path d="M14.9494 143.043C13.705 143.763 13.1485 145.767 12.976 147.136C12.7755 148.734 13.0061 150.384 13.5345 151.895C14.1001 153.514 14.9725 155.002 16.0324 156.328C16.9789 157.513 18.1742 158.632 19.7304 158.762C23.1006 159.043 25.4019 155.337 25.3387 152.243C25.3016 150.434 24.6679 148.693 23.8778 147.099C23.1728 145.678 22.2734 144.297 21.0721 143.267C19.7685 142.149 18.0168 141.322 16.282 141.503C14.9955 141.638 12.8908 142.715 13.7391 144.352C13.8644 144.594 14.2595 144.644 14.43 144.426C15.0637 143.611 15.6704 143.01 16.7523 143.02C18.0258 143.032 19.2602 143.662 20.2027 144.512C21.1613 145.378 21.8783 146.469 22.4749 147.62C23.1157 148.855 23.6612 150.209 23.8196 151.609C23.967 152.907 23.7544 154.202 23.0575 155.31C22.4007 156.354 21.2606 157.291 19.9972 157.276C18.7337 157.26 17.7761 156.177 17.0361 155.246C16.2279 154.229 15.518 153.097 15.0226 151.884C14.449 150.48 14.1783 149.013 14.2355 147.491C14.2615 146.788 14.3398 146.056 14.5363 145.38C14.7459 144.661 15.1129 144.004 15.2482 143.268C15.2803 143.09 15.1058 142.953 14.9494 143.043Z" fill="#332B23"/>
<path d="M23.9529 148.158C24.1184 147.455 24.0743 146.774 24.0472 146.057C24.0151 145.217 23.9971 144.376 23.97 143.535C23.9188 141.948 23.9459 140.335 24.1886 138.764C24.5796 136.237 25.5342 133.722 27.3281 131.893C27.7573 131.454 28.2416 131.012 28.7991 130.752C29.491 130.43 30.0476 130.582 30.5991 131.088C31.4634 131.881 32.1262 132.902 32.5704 133.999C33.4859 136.259 33.6935 138.734 33.7276 141.158C33.7517 142.884 33.7135 144.614 33.6223 146.338C33.5742 147.252 33.509 148.164 33.4278 149.074C33.3907 149.495 33.3496 149.917 33.3044 150.337C33.2824 150.54 33.2383 150.752 33.2342 150.957C33.2272 151.353 33.1741 151.071 33.4919 150.935C33.6825 150.956 33.873 150.976 34.0625 150.997C34.1277 151.085 34.1928 151.173 34.257 151.26C34.1728 151.49 34.0886 151.719 34.0033 151.947C34.0184 151.937 34.0324 151.928 34.0475 151.917C34.3483 151.714 34.3844 151.299 34.1367 151.037C34.1247 151.023 34.1116 151.011 34.0996 150.998C33.9652 150.856 33.7096 150.781 33.525 150.857C33.0337 151.057 32.8001 151.631 33.1089 152.112C33.2513 152.333 33.526 152.533 33.8008 152.497C34.6461 152.386 34.7935 151.748 34.8777 150.995C34.983 150.052 35.0753 149.108 35.1485 148.162C35.2898 146.338 35.3681 144.509 35.3741 142.681C35.3831 139.715 35.2979 136.574 34.1979 133.788C33.2352 131.348 30.958 127.889 28.006 129.436C25.446 130.778 23.8627 133.876 23.1357 136.605C22.6424 138.453 22.4769 140.4 22.523 142.312C22.5471 143.325 22.6293 144.328 22.7547 145.333C22.878 146.321 22.9712 147.342 23.3944 148.247C23.5147 148.498 23.8958 148.402 23.9529 148.158Z" fill="#332B23"/>
<path d="M12.0384 148.887C12.0233 148.921 12.0103 148.955 11.9972 148.989C12.0223 148.952 12.0484 148.916 12.0745 148.88C12.0594 148.888 12.0444 148.895 12.0293 148.902C11.9461 148.941 11.8859 149.041 11.8549 149.122C11.8158 149.225 11.8228 149.308 11.8398 149.417C11.8488 149.47 11.8599 149.523 11.8739 149.575C11.8669 149.531 11.8599 149.486 11.8529 149.442C11.8539 149.448 11.8539 149.453 11.8549 149.459C11.8759 149.372 11.896 149.284 11.917 149.197C11.915 149.199 11.914 149.202 11.912 149.204C11.8057 149.365 11.8408 149.585 11.9251 149.744C11.9551 149.802 11.9892 149.859 12.0263 149.911C12.0855 149.995 12.1457 150.086 12.2249 150.15C12.3592 150.26 12.5006 150.364 12.6601 150.434C12.8165 150.503 12.9739 150.565 13.1434 150.589C13.2176 150.599 13.2938 150.608 13.369 150.613C13.4452 150.619 13.5184 150.602 13.5926 150.588C13.6588 150.575 13.723 150.558 13.7861 150.534C14.0408 150.437 14.2023 150.197 14.1581 149.915C14.115 149.639 13.8874 149.451 13.6167 149.448C13.5756 149.448 13.5344 149.446 13.4943 149.442C13.5445 149.447 13.5946 149.453 13.6437 149.458C13.5194 149.444 13.3941 149.431 13.2697 149.418C13.3209 149.424 13.372 149.429 13.4241 149.435C13.3088 149.421 13.1965 149.391 13.0882 149.348C13.1344 149.366 13.1805 149.385 13.2266 149.405C13.1183 149.359 13.016 149.301 12.9218 149.231C12.9609 149.26 13 149.29 13.0401 149.319C12.9468 149.248 12.8506 149.181 12.7563 149.111C12.7944 149.14 12.8315 149.168 12.8696 149.197C12.8205 149.158 12.7734 149.118 12.7293 149.075C12.5959 148.944 12.3963 148.894 12.2189 148.95C12.2169 148.951 12.2148 148.951 12.2118 148.952C12.3412 148.967 12.4705 148.98 12.5999 148.995C12.5939 148.992 12.5889 148.99 12.5828 148.986C12.6169 149.012 12.65 149.037 12.6841 149.063C12.652 149.038 12.6209 149.012 12.5919 148.985C12.4585 148.863 12.3362 148.824 12.1567 148.845C12.1948 148.861 12.2329 148.876 12.272 148.891C12.26 148.879 12.2469 148.867 12.2349 148.855C12.1797 148.801 12.0725 148.81 12.0384 148.887Z" fill="#332B23"/>
<path d="M33.1742 152.144C33.5502 152.538 34.0095 152.707 34.4757 152.977C34.9651 153.261 35.4063 153.612 35.8445 153.974C36.6788 154.661 37.4107 155.489 37.9913 156.412C39.1695 158.285 40.0259 161.193 38.236 162.98C36.5353 164.676 33.7297 163.124 32.2487 161.837C30.6503 160.447 29.5252 158.552 29.0951 156.444C28.8634 155.309 28.708 153.755 29.8491 153.087C31.1567 152.321 32.5274 153.039 33.8571 153.285C34.6001 153.423 35.1295 152.321 34.3684 151.948C33.0017 151.279 31.1758 150.922 29.7168 151.477C28.3661 151.992 27.5769 153.146 27.4736 154.61C27.2811 157.342 28.6087 160.18 30.3966 162.127C32.1574 164.044 35.3572 166.035 37.9793 164.918C40.8451 163.696 41.177 160.06 40.1071 157.456C39.5065 155.994 38.595 154.67 37.4298 153.625C36.8262 153.084 36.1904 152.651 35.4795 152.278C34.8307 151.937 34.1108 151.516 33.3727 151.617C33.1201 151.651 32.9817 151.942 33.1742 152.144Z" fill="#332B23"/>
<path d="M37.5841 164.474C37.2562 165.626 37.2191 166.811 37.188 168.013C37.1539 169.301 37.1549 170.578 37.3084 171.86C37.5971 174.27 38.2218 176.595 39.0381 178.868C40.6936 183.484 42.689 188.004 44.6424 192.493C45.7714 195.088 46.9356 197.666 48.174 200.208C48.6483 201.182 50.0631 200.286 49.5798 199.315C47.4089 194.959 45.4756 190.49 43.5895 185.998C41.7685 181.662 39.7059 177.287 38.8816 172.607C38.642 171.243 38.5217 169.857 38.3712 168.481C38.2228 167.128 38.2389 165.776 37.8709 164.467C37.8288 164.317 37.6242 164.333 37.5841 164.474Z" fill="#332B23"/>
<path d="M74.1346 35.5517C72.9173 33.8125 71.708 32.0856 70.4204 30.3999C69.15 28.7379 67.8685 27.0842 66.582 25.4355C64.1353 22.299 61.5683 19.2757 58.5912 16.654C55.7294 14.1332 52.6038 11.9367 49.362 9.96582C47.8429 9.04214 46.3508 8.16377 44.5288 8.6251C42.8452 9.05141 41.5216 10.39 40.6994 11.9069C39.7789 13.6039 39.3256 15.5552 38.7791 17.4015C38.1605 19.495 37.5418 21.5874 36.9231 23.6809C35.6857 27.8668 34.4473 32.0526 33.2099 36.2385C30.7342 44.6103 28.2594 52.9821 25.7837 61.3538C24.5463 65.5397 23.308 69.7256 22.0706 73.9115C21.7678 74.9371 21.4529 75.9607 21.1601 76.9894C20.9626 77.6865 20.8111 78.4444 20.8914 79.1735C21.0769 80.853 22.4005 81.5892 23.9387 81.2824C24.4591 81.1784 25.2152 80.7932 25.7396 81.0249C25.6122 80.8633 25.4849 80.7016 25.3575 80.5399C25.6744 82.377 24.6306 84.0966 23.701 85.5681C23.2017 86.359 22.6742 87.1313 22.2029 87.9406C21.7397 88.7356 21.13 89.7056 21.5552 90.6489C21.8359 91.2729 22.4346 91.5602 23.0653 91.6673C23.4955 91.7404 24.3518 91.6467 24.7098 91.9535C25.175 92.351 23.8574 93.5249 23.5907 93.8266C22.7494 94.7771 21.9081 95.7285 21.0678 96.679C20.7389 97.0507 20.7771 97.7458 21.2624 97.9785C22.4717 98.5572 23.4333 99.4377 24.1131 100.619C24.2004 100.238 24.2886 99.8557 24.3759 99.4747C23.6208 99.866 22.8657 100.258 22.1107 100.65C21.6925 100.867 21.6735 101.419 21.848 101.794C25.0838 108.747 26.4405 116.562 25.8489 124.237C25.6804 126.417 25.3355 128.579 24.8471 130.707C24.6045 131.765 26.2008 132.175 26.4425 131.116C28.2264 123.293 27.9516 115.009 25.6694 107.324C25.0166 105.127 24.1903 102.992 23.2247 100.919C23.1375 101.3 23.0492 101.682 22.962 102.063C23.7171 101.672 24.4721 101.28 25.2272 100.889C25.6223 100.684 25.6975 100.104 25.4899 99.7445C24.6807 98.339 23.4874 97.2134 22.0445 96.5235C22.1097 96.957 22.1739 97.3895 22.239 97.823C23.0803 96.8715 23.9206 95.9211 24.7619 94.9696C25.4548 94.186 26.3753 93.3324 26.4285 92.1986C26.4686 91.3398 25.9421 90.6602 25.1841 90.3636C24.5684 90.1227 23.9126 90.1772 23.2809 90.0238C23.0452 89.9662 23.0171 90.0259 23.0432 89.8384C23.1054 89.3802 23.5837 88.7902 23.8203 88.4009C24.3408 87.5432 24.9103 86.7184 25.4307 85.8606C26.4064 84.2511 27.2387 82.4151 26.9689 80.4699C26.8877 79.886 26.6741 79.5761 26.1096 79.4103C25.6654 79.2806 25.2091 79.3115 24.7599 79.3938C24.2375 79.4896 23.1716 80.0199 22.7053 79.5792C22.2009 79.1024 22.5679 77.9429 22.7254 77.39C23.0753 76.1553 23.4533 74.9268 23.8163 73.6963C25.2833 68.7309 26.7503 63.7645 28.2183 58.798C31.1523 48.8662 34.0874 38.9344 37.0214 29.0026C37.7614 26.4993 38.5004 23.996 39.2404 21.4917C39.9383 19.1305 40.56 16.726 41.3632 14.3999C42.01 12.5268 43.2674 10.2685 45.4453 10.1234C46.5102 10.0523 47.4267 10.6949 48.3071 11.2252C49.2978 11.8214 50.2765 12.4382 51.2411 13.0787C55.0455 15.6057 58.5762 18.5291 61.6445 21.9602C64.9124 25.6158 67.7692 29.6338 70.9018 33.4078C71.6919 34.3603 72.5462 35.2644 73.3595 36.1984C73.7365 36.636 74.4695 36.0305 74.1346 35.5517Z" fill="#332B23"/>
<path d="M71.1449 32.1834C70.8851 32.3265 70.6164 32.4511 70.3728 32.621C70.0429 32.8507 70.2073 33.3295 70.5843 33.3532C72.679 33.485 74.7337 33.3182 76.8224 33.1349C78.8569 32.9557 80.8924 32.7776 82.927 32.5984C87.0392 32.237 91.1504 31.8683 95.2616 31.4893C95.756 31.444 96.1761 30.9683 96.0027 30.438C95.3529 28.4557 94.0924 26.8164 92.3798 25.6888C92.3286 26.1893 92.2765 26.6898 92.2254 27.1902C93.8548 26.9235 95.6356 27.6474 96.6574 28.9727C96.9372 29.3351 97.3413 29.4752 97.7585 29.2404C99.9926 27.9831 102.711 29.2589 104.79 30.2743C105.437 30.5904 106.413 29.816 105.863 29.1158C105.507 28.6627 105.774 28.2498 106.183 27.9182C106.753 27.4569 107.397 27.3951 108.06 27.6649C109.678 28.325 110.842 29.7553 112.522 30.334C115.602 31.3957 118.848 30.1106 121.942 29.8202C122.742 29.745 123.562 29.7151 124.353 29.8747C124.71 29.9468 125.065 30.0457 125.398 30.1981C125.591 30.2866 125.781 30.3896 125.959 30.5049C126.028 30.5492 126.101 30.5894 126.165 30.6409C126.225 30.6831 126.278 30.7325 126.326 30.7891C126.467 30.9807 126.565 30.8509 126.621 30.3999C126.774 30.3536 126.926 30.3072 127.079 30.2598C126.979 30.2681 126.956 30.2732 127.01 30.2763C127.351 30.2949 127.424 30.6254 127.231 31.269C127.878 30.5657 127.02 29.6523 126.252 30.0302C125.016 30.6367 126.161 32.379 127.275 32.1154C127.843 31.9805 128.187 31.4554 128.213 30.8715C128.246 30.126 127.726 29.5226 127.17 29.121C125.363 27.8153 123.073 27.8338 120.979 28.1592C118.797 28.498 116.594 29.1828 114.367 29.0159C113.242 28.9315 112.272 28.5062 111.348 27.8575C110.317 27.1336 109.343 26.2779 108.11 25.9422C106.937 25.6229 105.683 26.0575 104.844 26.939C104.067 27.7555 103.745 29.0345 104.494 29.9859C104.852 29.5998 105.21 29.2136 105.567 28.8275C102.896 27.528 99.7359 26.2521 96.9162 27.842C97.2832 27.9316 97.6502 28.0202 98.0172 28.1098C96.497 26.1409 94.1747 25.2255 91.7621 25.6229C91.0231 25.7444 91.1003 26.7907 91.6077 27.1243C92.9624 28.014 93.9661 29.3496 94.4805 30.9117C94.7272 30.5616 94.9739 30.2104 95.2215 29.8603C91.0682 30.2475 86.9159 30.6429 82.7646 31.0466C80.6889 31.2484 78.6122 31.4502 76.5366 31.6521C74.485 31.8518 72.4675 32.0732 70.463 32.5799C70.5934 32.7971 70.7237 33.0144 70.8531 33.2317C71.0576 33.0062 71.2181 32.7528 71.3986 32.5067C71.5359 32.3193 71.3594 32.065 71.1449 32.1834Z" fill="#332B23"/>
<path d="M126.319 35.7988C127.999 32.3008 129.182 28.569 130.712 24.9958C132.25 21.4041 133.979 17.8989 135.891 14.5018C137.804 11.1026 139.888 7.79713 142.158 4.6379C142.992 3.47635 144.115 1.89055 145.632 1.71137C147.21 1.52499 148.343 3.0902 149.127 4.26925C153.456 10.7751 156.953 17.8824 159.963 25.1184C163.001 32.4192 165.55 39.9167 168.047 47.4256C168.35 48.3359 168.652 49.2472 168.954 50.1575C169.255 51.0678 169.659 52.0203 169.73 52.9882C169.802 53.9891 169.2 54.676 168.984 55.6058C168.763 56.5542 169.098 57.4521 169.647 58.21C170.887 59.9194 172.262 61.5391 173.565 63.1981C174.347 64.1928 175.995 66.0566 175.017 67.3963C174.821 67.6651 174.221 68.1995 173.857 67.9246C173.07 67.3284 171.844 68.1182 172.439 69.1077C174.139 71.9323 175.827 74.8032 176.959 77.9264C177.951 80.6645 178.428 83.5333 178.652 86.4372C179.088 92.0658 178.707 97.7633 179.72 103.338C180.284 106.441 181.369 109.279 183.197 111.827C183.793 112.659 185.128 111.842 184.542 110.973C181.438 106.369 180.963 100.569 180.799 95.1395C180.629 89.4574 180.776 83.6095 178.985 78.1529C177.811 74.5777 175.928 71.3073 174.007 68.113C173.534 68.5074 173.061 68.9018 172.589 69.2962C173.989 70.3558 175.723 69.7441 176.634 68.3138C177.699 66.6415 176.889 64.6109 175.858 63.1517C174.537 61.2838 173.036 59.5312 171.625 57.7343C171.353 57.3872 171.037 57.0361 170.856 56.6273C170.665 56.1917 170.849 55.8241 171.036 55.4235C171.501 54.4247 171.683 53.4732 171.51 52.3704C171.342 51.3077 170.956 50.2954 170.62 49.2801C170.296 48.2957 169.97 47.3123 169.643 46.3289C168.975 44.323 168.297 42.3201 167.607 40.3214C166.214 36.289 164.766 32.2761 163.2 28.3116C160.098 20.4608 156.539 12.7625 152.036 5.64806C150.272 2.86159 147.777 -1.52096 143.926 0.528216C142.33 1.37672 141.267 3.01812 140.247 4.47314C139.032 6.20413 137.869 7.97321 136.759 9.77628C134.578 13.3175 132.608 16.9978 130.851 20.779C129.112 24.5232 127.428 28.4197 126.312 32.4151C126.023 33.45 125.837 34.4807 125.684 35.5434C125.629 35.9121 126.133 36.185 126.319 35.7988Z" fill="#332B23"/>
<path d="M101.512 97.3402C99.9943 95.465 98.5533 93.5302 97.0332 91.655C96.6672 91.204 96.3012 90.7519 95.9352 90.3009C95.6945 90.0043 95.3275 89.7191 95.7056 89.4102C96.4837 88.7748 97.5677 88.3568 98.4892 88.0015C99.9852 87.4248 101.619 86.9955 103.205 87.4496C103.789 87.6174 104.366 87.9377 104.666 88.502C105.127 89.3711 104.795 90.3926 104.405 91.2205C103.242 93.6887 101.783 96.0448 100.47 98.4327C100.996 98.6449 101.521 98.858 102.047 99.0702C102.424 97.4936 102.707 95.8975 102.885 94.2839C102.969 93.5209 103.037 92.7558 103.078 91.9887C103.114 91.3224 103.183 90.6098 102.749 90.0548C101.87 88.9303 100.435 89.7685 99.8609 90.7591C99.154 91.9794 99.0687 93.7176 99.2302 95.0892C99.3405 96.0252 100.678 96.3084 100.919 95.2807C101.629 92.2481 99.8088 89.0498 96.9269 88.1261C96.4115 87.9613 95.851 88.4484 95.881 88.987C96.0304 91.6478 97.2779 94.1768 99.3515 95.7997C99.9411 96.261 100.734 95.9387 100.772 95.152C100.851 93.5466 100.334 91.9433 99.3615 90.6881C98.6095 89.7171 96.6521 87.8419 95.4789 89.2485C94.9545 89.8777 95.132 90.7252 95.3315 91.447C95.5551 92.2523 95.856 93.0318 96.2059 93.7876C96.9329 95.358 97.9457 96.7749 99.151 97.9941C99.6082 98.4564 100.418 98.2062 100.567 97.5719C101.238 94.6948 100.799 91.6766 99.3766 89.1085C99.1249 88.6544 98.3357 88.4989 98.0048 88.9623C97.0272 90.3287 97.5907 92.1936 99.0547 92.9443C100.657 93.765 102.349 92.589 102.906 91.0114C103.456 89.4555 102.888 87.2138 101.097 86.875C99.53 86.5784 97.9487 87.8347 97.3922 89.2774C97.0302 90.2144 98.0359 91.1093 98.819 90.3524C99.9682 89.2424 101.453 88.6039 103.027 88.5215C104.188 88.4608 104.127 86.7349 102.982 86.6814C101.828 86.6278 100.696 86.9666 99.7516 87.6483C99.2492 88.0108 99.1911 88.6595 99.6022 89.1208C101.14 90.8467 103.889 90.4523 105.145 88.6214C105.755 87.7338 104.353 86.703 103.661 87.5031C101.874 89.5698 101.219 92.4191 101.921 95.0882C102.149 95.9583 103.188 95.8924 103.621 95.2735C104.767 93.6342 105.511 91.7261 105.789 89.7273C105.956 88.5277 104.37 88.0911 103.997 89.2681C103.553 90.6696 103.11 92.071 102.666 93.4725C103.259 93.6249 103.853 93.7773 104.446 93.9287C104.764 92.796 104.925 91.6334 104.946 90.4554C104.338 90.4708 103.729 90.4863 103.122 90.5017C103.132 91.4635 103.142 92.4253 103.152 93.3881C103.161 94.2325 104.163 94.5455 104.717 94.009C105.816 92.9453 105.495 91.1299 104.485 90.1259C103.163 88.813 101.164 89.196 99.5851 89.6975C99.1199 89.8458 98.8482 90.3658 98.9865 90.8467C99.3074 91.9711 99.6293 93.0967 99.9502 94.2211C100.208 95.1242 101.418 95.0151 101.669 94.1779C102.227 92.311 102.04 90.3915 101.264 88.6245C100.915 87.8295 99.8749 88.2445 99.6533 88.8819C98.8501 91.1885 98.7669 93.6733 99.3475 96.0437C99.909 95.8697 100.472 95.6947 101.033 95.5206C100.464 93.8823 99.4959 92.4387 98.1653 91.3554C97.3982 90.7314 96.3082 91.5521 96.8136 92.4829C100.564 99.3935 103.317 106.993 104.656 114.795C104.933 116.408 105.071 118.305 103.85 119.559C102.802 120.635 101.191 120.988 99.7927 121.288C97.7692 121.721 95.7397 122.123 93.7131 122.541C91.9243 122.91 90.0191 123.371 88.2502 122.666C86.7873 122.083 85.6562 120.855 84.7868 119.552C83.8011 118.074 83.2215 116.41 82.3582 114.873C82.2679 115.267 82.1767 115.66 82.0864 116.055C82.6209 115.784 83.1553 115.513 83.6898 115.241C84.3546 114.904 83.8322 113.932 83.1824 114.085C82.5898 114.224 81.9982 114.363 81.4056 114.502C80.9633 114.606 80.7267 115.152 80.848 115.573C81.3113 117.179 82.2007 118.803 83.0892 120.202C83.9756 121.601 85.0706 122.894 86.4674 123.773C88.1119 124.807 90.008 125.004 91.8892 124.726C94.1142 124.397 96.3213 123.858 98.5243 123.403C100.304 123.035 102.157 122.749 103.774 121.847C105.412 120.933 106.398 119.355 106.572 117.454C106.759 115.42 106.191 113.304 105.75 111.337C105.273 109.209 104.703 107.102 104.045 105.024C102.564 100.351 100.634 95.8265 98.3097 91.5325C97.8594 91.9083 97.4082 92.2842 96.958 92.6601C98.053 93.5539 98.8802 94.6855 99.3505 96.0427C99.7306 97.1394 101.312 96.6523 101.036 95.5196C100.532 93.4478 100.672 91.3255 101.373 89.3206C100.804 89.335 100.237 89.3494 99.6684 89.3638C100.286 90.7746 100.389 92.2533 99.9421 93.733C100.515 93.7186 101.087 93.7042 101.661 93.6898C101.343 92.5643 101.025 91.4378 100.707 90.3122C100.508 90.6953 100.308 91.0784 100.109 91.4614C100.971 91.1906 102.243 90.7447 103.078 91.3255C103.498 91.6179 103.831 92.313 103.407 92.7218C103.928 92.9288 104.45 93.1358 104.972 93.3428C104.965 92.381 104.958 91.4182 104.951 90.4564C104.942 89.2444 103.152 89.3 103.127 90.5027C103.105 91.5191 102.947 92.4984 102.671 93.4735C102.337 94.6485 104.086 95.0717 104.451 93.9297C104.9 92.5293 105.347 91.1288 105.794 89.7284C105.196 89.5749 104.6 89.4226 104.002 89.2691C103.739 91.1278 103.069 92.8268 102.002 94.3529C102.568 94.4147 103.135 94.4765 103.702 94.5383C103.177 92.5385 103.671 90.3699 105.011 88.8202C104.517 88.4474 104.021 88.0746 103.527 87.7019C102.918 88.5874 101.527 88.4927 100.863 87.7688C100.813 88.26 100.763 88.7512 100.713 89.2413C101.42 88.7151 102.158 88.4834 103.031 88.5236C103.016 87.9099 103.001 87.2972 102.986 86.6834C100.926 86.7936 99.0296 87.638 97.5306 89.0899C98.0059 89.4483 98.4821 89.8066 98.9574 90.165C99.2071 89.5173 99.7566 88.7635 100.49 88.6667C101.273 88.5637 101.436 89.5698 101.307 90.1722C101.182 90.7591 100.659 91.5685 99.9722 91.3708C99.4067 91.2071 99.0547 90.513 99.4026 90.0147C98.9013 90.027 98.3999 90.0404 97.8985 90.0527C99.1229 92.2008 99.4748 94.7308 98.9153 97.1497C99.3876 97.0086 99.8589 96.8675 100.331 96.7275C98.6947 95.0779 97.5045 93.0215 96.9048 90.7458C96.8808 90.6551 96.8728 90.5295 96.8296 90.4451C96.8266 90.3884 96.8236 90.3328 96.8206 90.2772C96.7494 90.3607 96.6792 90.4451 96.608 90.5285C96.6281 90.6109 97.1194 90.8425 97.2097 90.9126C97.6238 91.2349 97.9838 91.6365 98.2706 92.0803C98.8772 93.0174 99.148 94.078 99.0938 95.1984C99.5671 94.9821 100.041 94.7669 100.515 94.5506C98.782 93.1996 97.684 91.1906 97.5676 88.9489C97.2187 89.2362 96.8707 89.5224 96.5218 89.8097C98.5213 90.4605 99.7426 92.7836 99.2573 94.8575C99.8198 94.9214 100.383 94.9852 100.946 95.049C100.83 94.0646 100.877 93.0925 101.158 92.139C101.226 91.9124 101.29 91.69 101.439 91.5047C101.472 91.4635 101.72 91.2781 101.721 91.2647C101.473 91.0073 101.365 90.9764 101.397 91.1731C101.402 91.2575 101.402 91.342 101.397 91.4264C101.393 91.7096 101.372 91.9938 101.356 92.277C101.227 94.4271 100.891 96.5555 100.391 98.6469C100.16 99.6149 101.49 100.154 101.969 99.2843C102.698 97.957 103.428 96.6307 104.157 95.3034C104.834 94.0708 105.604 92.8526 106.12 91.5356C106.585 90.3493 106.762 89.059 106.207 87.8697C105.818 87.0366 105.111 86.4219 104.287 86.0718C102.412 85.2758 100.302 85.6197 98.4511 86.3055C96.8427 86.9007 92.7144 88.3506 94.394 90.7838C95.2874 92.0782 96.4857 93.2202 97.5175 94.4003C98.6035 95.6422 99.7626 96.815 100.851 98.0569C101.269 98.5368 101.9 97.819 101.512 97.3402Z" fill="#332B23"/>
<path d="M104.691 111.93C104.105 114.014 105.664 116.558 107.794 116.772C110.674 117.063 112.213 114.312 114.133 112.672C116.132 110.964 118.793 110.435 121.266 109.898C123.865 109.333 126.571 108.694 128.665 106.91C129.663 106.06 130.493 104.972 130.985 103.736C131.44 102.594 131.93 100.683 130.943 99.7146C130.644 99.4211 129.996 99.4407 129.822 99.8917C129.613 100.434 129.666 100.824 129.662 101.392C129.658 101.9 129.55 102.408 129.379 102.884C129.03 103.853 128.397 104.702 127.655 105.389C125.959 106.962 123.572 107.571 121.408 108.105C119.177 108.654 116.907 109.145 114.864 110.262C113.873 110.804 113 111.52 112.222 112.348C111.385 113.24 110.619 114.253 109.544 114.858C108.526 115.43 107.348 115.46 106.505 114.563C105.772 113.784 105.486 112.699 104.768 111.907C104.743 111.879 104.7 111.897 104.691 111.93Z" fill="#332B23"/>
<path d="M41.1503 77.1047C43.1568 77.1448 45.1041 76.8359 47.0865 76.5527C48.9827 76.2819 50.8749 75.9895 52.768 75.7001C56.6336 75.108 60.5011 74.5077 64.3606 73.8723C72.0215 72.6109 79.6784 71.3227 87.3353 70.0314C102.648 67.4488 117.962 64.8734 133.282 62.3372C141.928 60.9058 150.566 59.4169 159.207 57.9557C159.632 57.8836 159.926 57.3553 159.916 56.9486C159.904 56.4625 159.577 56.1392 159.16 55.9786C158.778 55.8313 158.353 55.7922 157.952 55.7191C157.526 55.6418 157.099 56.1145 157.374 56.5315C157.643 56.9383 157.893 57.3656 158.23 57.7167C158.363 57.1422 158.496 56.5665 158.629 55.9919C143.323 58.5807 128.026 61.2199 112.723 63.8221C97.4188 66.4242 82.108 68.9873 66.8133 71.6399C62.5417 72.3802 58.276 73.1597 54.0094 73.931C51.8375 74.3244 49.6635 74.7177 47.4976 75.144C45.3297 75.5704 43.1688 75.9266 41.0862 76.6979C40.8706 76.7751 40.9167 77.0995 41.1503 77.1047Z" fill="#332B23"/>
<path d="M40.6594 77.6637C43.6064 86.918 49.333 97.9248 59.7364 99.4633C64.8373 100.217 69.9954 98.7939 74.4475 96.2505C78.9548 93.6751 82.7803 90.0226 86.4142 86.3084C90.0742 82.5684 93.7823 78.4783 98.6997 76.5125C100.991 75.597 103.528 75.1306 105.973 75.5806C108.508 76.047 110.728 77.4279 112.867 78.8345C115.059 80.2772 117.251 81.6694 119.612 82.8072C122.09 84.0017 124.675 84.9852 127.319 85.7163C132.52 87.1558 138.132 87.6244 143.376 86.1313C147.868 84.8523 152.003 82.1204 154.629 78.1199C156.095 75.8864 157.018 73.312 157.728 70.7346C158.485 67.9842 159.072 65.1781 159.574 62.368C159.827 60.948 160.051 59.5228 160.25 58.0946C160.326 57.5488 160.084 56.9989 159.526 56.8558C159.045 56.7333 158.397 57.0515 158.32 57.6003C157.923 60.4578 157.419 63.2999 156.8 66.1162C156.243 68.6556 155.655 71.2351 154.683 73.6467C153.758 75.943 152.478 78.0148 150.717 79.7273C149.155 81.2441 147.275 82.453 145.291 83.2974C140.514 85.3301 135.212 85.3744 130.202 84.321C125.065 83.2408 120.174 81.1401 115.722 78.3114C113.633 76.9841 111.602 75.5239 109.315 74.5714C106.992 73.6055 104.529 73.2801 102.046 73.6622C96.9369 74.4479 92.6963 77.5546 89.0073 81.0989C85.2931 84.668 81.9059 88.5831 77.8438 91.7567C73.9091 94.8305 69.3747 97.2699 64.3891 97.7766C61.9876 98.0206 59.5609 97.8126 57.2637 97.0321C55.0697 96.2865 53.0822 94.9798 51.3716 93.3991C47.6554 89.9639 45.3592 85.3631 43.2926 80.7663C42.7551 79.5718 42.2337 78.3794 41.6581 77.2045C41.3743 76.6237 40.4669 77.0603 40.6594 77.6637Z" fill="#332B23"/>
<path d="M41.1875 77.5002C42.83 81.5862 44.4895 85.7052 46.9131 89.3587C49.3367 93.0122 52.6117 96.2126 56.6507 97.7418C61.8137 99.6972 67.7028 98.6994 72.6373 96.1982C77.5717 93.6959 81.704 89.8169 85.6057 85.8308C88.5517 82.8208 91.4466 79.6874 94.9662 77.4189C98.4858 75.1504 102.784 73.8055 106.834 74.7662C110.093 75.5406 112.845 77.6938 115.701 79.4845C119.186 81.6696 122.959 83.3718 126.883 84.5292C131.615 85.9245 136.65 86.5228 141.48 85.5435C146.31 84.5642 150.921 81.892 153.699 77.7185C155.567 74.9135 156.537 71.5885 157.325 68.2871C158.147 64.8427 158.802 61.356 159.287 57.8446L41.1875 77.5002Z" fill="#332B23"/>
<path d="M53.1727 76.7762L47.6797 86.4382C47.6797 86.4382 50.6227 94.7039 55.8209 95.6111C56.2621 95.158 68.1806 74.3563 68.1806 74.3563L53.1727 76.7762Z" fill="white"/>
<path d="M124.977 64.584L118.176 78.6441C121.576 80.7025 128.378 82.9855 128.378 82.9855L138.841 62.5699L124.977 64.584Z" fill="white"/>
<path d="M158.915 56.1392C158.335 56.1022 157.974 56.5552 157.983 57.1226C157.992 57.6488 158.489 57.9701 158.96 57.8496C160.218 57.5283 161.416 56.962 162.648 56.5542C163.89 56.1444 165.146 55.7778 166.412 55.4524C168.952 54.7975 171.526 54.2981 174.098 53.7997C173.674 53.4846 173.251 53.1705 172.828 52.8554C172.85 53.2889 172.874 53.7225 172.898 54.156C173.132 53.8244 173.366 53.4918 173.599 53.1602C168.771 54.9262 163.929 56.6871 158.921 57.8465C159.308 58.3377 159.694 58.83 160.081 59.3211C160.617 58.5179 161.553 58.1359 162.424 57.8589C163.519 57.5098 164.648 57.2884 165.737 56.9177C166.957 56.5017 168.138 55.9755 169.337 55.4977C170.564 55.0086 171.853 54.7141 173.075 54.2239C173.975 53.8625 173.796 52.5403 172.806 52.5002C171.386 52.4425 169.962 53.0655 168.66 53.5855C167.326 54.1179 166.009 54.7059 164.637 55.1281C162.325 55.8396 159.808 56.1217 158.338 58.3316C157.805 59.1327 158.733 59.9843 159.498 59.8062C164.503 58.6405 169.344 56.8745 174.171 55.1023C174.571 54.955 174.897 54.5648 174.872 54.1065C174.848 53.673 174.824 53.2395 174.797 52.806C174.756 52.1006 174.166 51.733 173.528 51.8617C170.923 52.3859 168.317 52.911 165.747 53.5989C164.484 53.9366 163.232 54.3135 162.002 54.7604C160.76 55.2114 159.432 55.6645 158.343 56.441C158.718 56.5872 159.093 56.7324 159.468 56.8786C159.431 56.7663 159.385 56.6572 159.335 56.5511C159.186 56.3596 159.178 56.3524 159.313 56.5274C159.318 56.2988 159.116 56.1516 158.915 56.1392Z" fill="#332B23"/>
<path d="M41.6709 76.6669C40.9911 76.2406 40.2089 76.2612 39.4318 76.3529C38.5454 76.4579 37.661 76.6041 36.7776 76.7349C34.9666 77.0037 33.1527 77.2323 31.3277 77.3733C29.5529 77.5113 27.775 77.5731 25.9962 77.4887C25.1098 77.4465 24.2253 77.3692 23.3459 77.2477C22.5227 77.1334 21.8188 77.0757 21.0537 77.4588C20.7639 77.604 20.6045 77.9891 20.6095 78.3021C20.6406 80.1866 22.3432 81.2791 24.0278 81.3213C24.9393 81.344 25.8658 81.0948 26.7442 80.8724C27.7159 80.6252 28.6775 80.3369 29.6371 80.0424C33.3091 78.9179 37.1586 77.6308 41.0201 78.47C40.8637 77.916 40.7073 77.362 40.5509 76.809C40.2039 77.1478 39.6935 77.2354 39.2403 77.3321C38.5644 77.4753 37.8846 77.5999 37.2068 77.7327C35.8771 77.9943 34.5495 78.2785 33.2119 78.4958C30.6047 78.92 28.0438 78.8201 25.5169 78.0046C24.2885 77.6081 23.8132 79.6017 25.0335 79.995C27.9024 80.9218 30.8183 80.9579 33.7674 80.4636C35.2334 80.2175 36.6884 79.8941 38.1453 79.5965C39.482 79.3247 40.9329 79.2022 41.9617 78.1889C42.4822 77.6771 42.1944 76.6762 41.4924 76.5279C38.0109 75.7896 34.5154 76.532 31.1603 77.5371C29.4687 78.0437 27.7921 78.607 26.0804 79.0415C25.1679 79.2732 22.5177 79.9672 22.4836 78.2558C22.3352 78.5369 22.1878 78.8181 22.0394 79.0992C22.276 78.9797 22.6491 79.0796 22.8937 79.1126C23.3379 79.1723 23.7831 79.2248 24.2284 79.2691C25.0727 79.3535 25.92 79.4029 26.7673 79.4225C28.505 79.4627 30.2488 79.3834 31.9785 79.2032C33.6761 79.0261 35.3667 78.7727 37.0493 78.4803C37.9277 78.3269 38.8141 78.1662 39.6815 77.9562C40.4476 77.7708 41.2016 77.5082 41.7 76.8636C41.7501 76.7977 41.7421 76.7112 41.6709 76.6669Z" fill="#332B23"/>
<path d="M46.4116 18.1058C45.8651 18.8348 45.2835 19.5072 44.8433 20.3115C44.3871 21.1456 43.9619 21.993 43.5548 22.8539C42.7486 24.5612 42.0396 26.3148 41.3788 28.086C41.1753 28.6328 41.817 29.1579 42.3044 28.9911C44.0441 28.3959 45.5973 27.4053 46.9099 26.0934C46.5108 25.8679 46.1117 25.6424 45.7137 25.4169C44.9075 28.0191 43.8837 30.5388 42.6914 32.9783C42.3485 33.6795 43.276 34.4714 43.8125 33.8227C44.6046 32.865 45.5572 32.2533 46.7635 32.0093C46.4908 31.8064 46.219 31.6046 45.9463 31.4017C45.8029 34.5115 45.101 37.6759 44.1745 40.6313C43.7102 42.1131 43.1507 43.5547 42.5119 44.9654C42.2021 45.6502 41.8923 46.3329 41.5543 47.0043C41.1954 47.7179 40.707 48.3955 40.5987 49.1977C40.5436 49.6085 40.9567 50.0441 41.3538 49.7651C42.0056 49.3068 42.3375 48.6231 42.7255 47.927C43.1256 47.2082 43.5137 46.4781 43.8536 45.7264C44.5305 44.2313 45.108 42.6825 45.5933 41.1112C46.578 37.921 47.0042 34.6959 47.2127 31.3688C47.2418 30.9034 46.7615 30.6933 46.3955 30.7612C45.0198 31.0145 43.7172 31.7426 42.7967 32.829C43.1697 33.1101 43.5438 33.3922 43.9178 33.6733C45.1622 31.1196 46.204 28.4752 47.0834 25.767C47.322 25.0339 46.3594 24.6312 45.8871 25.0905C44.737 26.2088 43.3793 27.0253 41.8792 27.5433C42.188 27.845 42.4959 28.1468 42.8047 28.4485C43.4435 26.7216 44.1534 25.0225 44.9014 23.342C45.2574 22.545 45.6214 21.75 45.9884 20.9581C46.3745 20.1271 46.6111 19.256 46.935 18.3982C47.0453 18.1099 46.5941 17.8617 46.4116 18.1058Z" fill="#332B23"/>
<path d="M143.658 12.9891C144.148 14.1053 145.069 15.0866 145.825 16.0258C146.57 16.9505 147.315 17.8752 148.06 18.7999C148.796 19.7133 149.542 20.6194 150.268 21.5411C150.917 22.3649 151.593 23.2741 151.673 24.3677C152.046 24.135 152.419 23.9022 152.792 23.6695C150.612 22.3926 148.171 21.713 145.665 21.6389C144.983 21.6183 144.715 22.5306 145.16 22.9858C146.979 24.8444 148.999 26.4756 151.179 27.8647C151.228 27.3848 151.279 26.9039 151.328 26.423C149.916 26.7464 148.431 26.6125 147.1 26.0235C146.555 25.7825 145.715 26.2398 145.993 26.9431C146.827 29.0602 148.303 30.7438 149.71 32.4769C150.999 34.0627 152.354 35.8719 152.494 38.0086C152.55 38.8623 153.764 38.8304 153.785 37.9757C153.903 33.1297 149.091 30.5955 147.464 26.4869C147.095 26.7937 146.726 27.1006 146.357 27.4064C148.093 28.1715 149.926 28.3538 151.771 27.9285C152.453 27.771 152.44 26.8174 151.919 26.4869C149.845 25.1698 147.939 23.618 146.209 21.8541C146.04 22.3031 145.872 22.752 145.703 23.201C147.95 23.2638 150.106 23.8981 152.063 25.0277C152.542 25.3047 153.228 24.9217 153.182 24.3296C152.993 21.9066 150.99 20.0572 149.556 18.2964C148.7 17.245 147.843 16.1936 146.987 15.1423C146.175 14.1444 145.373 13.0128 144.327 12.2672C143.86 11.9357 143.48 12.5854 143.658 12.9891Z" fill="#332B23"/>
<path d="M62.8318 150.061C62.4086 150.803 61.8711 151.373 61.5332 152.179C61.2123 152.945 60.9175 153.721 60.6608 154.513C60.4021 155.312 60.1725 156.123 59.9479 156.933C59.7534 157.635 59.5267 158.384 59.8576 159.082C60.4563 160.343 62.0867 160.197 62.9541 159.339C63.4254 158.872 63.671 158.225 64.1263 157.751C64.2677 157.603 64.6086 157.291 64.8402 157.39C64.8743 157.405 64.8733 157.514 64.9094 157.541C64.9786 157.592 64.7971 157.544 64.9987 157.473C64.397 157.684 64.3459 158.673 65.0308 158.814C66.2992 159.076 67.5537 158.51 68.2014 157.354C67.8495 157.41 67.4985 157.465 67.1465 157.521C67.8454 158.103 67.7983 159.086 67.8364 159.93C67.8785 160.87 67.9998 161.871 68.6256 162.607C69.6012 163.755 72.0148 163.517 71.9586 161.683C71.9366 160.964 70.8747 160.817 70.7173 161.542C70.6531 161.84 70.1587 161.893 69.894 161.757C69.3886 161.499 69.3074 160.662 69.2643 160.161C69.152 158.86 69.154 157.419 68.0761 156.517C67.7382 156.234 67.2518 156.275 67.0212 156.684C66.6823 157.285 66.0255 157.602 65.3586 157.463C65.3697 157.91 65.3797 158.358 65.3907 158.805C66.5319 158.408 66.5068 156.731 65.497 156.168C64.9235 155.848 64.2075 155.997 63.6771 156.334C63.0373 156.74 62.6914 157.39 62.207 157.954C62.0436 158.143 61.839 158.381 61.5763 158.411C61.2635 158.446 61.3216 158.383 61.3497 158.143C61.451 157.289 61.807 156.402 62.0496 155.581C62.3093 154.703 62.57 153.825 62.8037 152.94C62.911 152.53 63.0293 152.138 63.0875 151.716C63.1557 151.214 63.1236 150.726 63.2278 150.223C63.28 149.977 62.9571 149.841 62.8318 150.061Z" fill="#332B23"/>
<path d="M84.3187 166.271C83.9908 169.013 84.4541 171.823 84.6847 174.563C84.7368 175.18 85.3284 175.51 85.8609 175.218C87.0251 174.58 87.9606 173.607 88.5863 172.415C88.111 172.364 87.6347 172.311 87.1594 172.26C87.4312 173.901 87.7842 175.71 89.0165 176.904C90.0403 177.896 91.6667 178.367 92.9763 177.719C93.6291 177.397 93.961 176.808 94.4694 176.317C94.6438 176.148 94.6318 176.125 94.7692 176.273C94.9657 176.484 95.0179 176.926 95.1131 177.193C95.5744 178.476 96.6012 179.29 97.9278 179.447C99.3457 179.616 100.848 179.01 101.505 177.647C100.952 177.588 100.4 177.527 99.847 177.467C100.421 179.207 101.716 181.609 103.803 181.54C104.899 181.504 105.581 180.744 106.273 179.976C106.547 179.671 106.81 179.407 107.243 179.467C107.774 179.54 108.236 179.953 108.591 180.334C109.325 181.123 109.882 182.033 110.79 182.638C111.62 183.194 112.649 183.366 113.623 183.253C115.503 183.035 117.391 181.779 119.304 182.065C119.913 182.156 120.516 182.342 121.131 182.181C121.761 182.017 122.25 181.541 122.437 180.898C122.616 180.28 122.546 179.572 122.549 178.936C122.553 178.118 122.557 177.299 122.56 176.482C121.971 176.662 121.382 176.842 120.793 177.022C121.936 178.473 123.637 179.273 125.465 179.182C126.328 179.138 127.178 178.901 127.935 178.47C128.287 178.27 128.606 178.012 128.902 177.734C129.241 177.416 129.539 176.937 130.011 176.826C130.477 176.716 131 176.867 131.475 176.816C131.856 176.776 132.224 176.686 132.578 176.535C133.33 176.216 133.986 175.696 134.481 175.034C135.478 173.701 135.852 171.761 134.755 170.361C134.407 170.85 134.059 171.34 133.711 171.829C136.811 172.898 140.313 170.098 140.181 166.78C139.648 167.024 139.113 167.267 138.58 167.51C140.042 168.864 142.197 169.214 143.923 168.189C144.768 167.688 144.147 166.163 143.205 166.553C142.081 167.019 140.815 166.963 139.887 166.099C139.291 165.544 138.254 165.966 138.286 166.829C138.365 168.952 136.102 170.59 134.175 169.925C133.428 169.668 132.611 170.731 133.131 171.394C133.816 172.268 133.472 173.336 132.761 174.089C132.405 174.465 131.942 174.767 131.429 174.854C130.63 174.99 129.873 174.737 129.092 175.084C128.365 175.407 127.949 176.064 127.336 176.536C126.874 176.893 126.311 177.114 125.741 177.192C124.561 177.355 123.191 176.968 122.42 175.989C121.849 175.266 120.657 175.478 120.653 176.53C120.648 177.701 120.699 178.888 120.636 180.057C120.627 180.222 120.559 180.335 120.661 180.287C120.544 180.341 120.337 180.266 120.212 180.246C119.746 180.171 119.29 180.074 118.817 180.071C117.011 180.062 115.415 181.016 113.665 181.295C112.924 181.413 112.183 181.333 111.576 180.848C110.862 180.278 110.395 179.443 109.751 178.802C109.063 178.117 108.155 177.585 107.179 177.548C106.192 177.512 105.439 178.076 104.813 178.799C104.318 179.37 103.851 179.949 103.113 179.406C102.348 178.842 101.878 177.816 101.578 176.931C101.337 176.218 100.277 175.998 99.9213 176.75C99.455 177.737 98.0411 177.938 97.2149 177.285C96.7245 176.898 96.6363 176.158 96.3736 175.621C96.0206 174.899 95.3839 174.373 94.5626 174.467C93.7875 174.557 93.3122 175.188 92.8359 175.752C92.3416 176.336 91.773 176.527 91.037 176.289C89.2491 175.712 88.9252 173.423 88.6495 171.798C88.5312 171.099 87.5144 171.082 87.2226 171.643C86.7172 172.615 85.9922 173.348 85.0497 173.87C85.4417 174.089 85.8338 174.307 86.2259 174.525C85.9561 171.782 85.9201 168.891 85.0958 166.252C84.9845 165.894 84.3698 165.842 84.3187 166.271Z" fill="#332B23"/>
<path d="M147.264 145.493C147.451 145.921 147.797 146.167 148.147 146.451C148.33 146.6 148.486 146.761 148.678 146.899C148.854 147.025 149.035 147.143 149.209 147.273C149.941 147.822 150.965 148.272 151.864 147.905C152.682 147.573 153.109 146.725 153.149 145.854C153.168 145.424 153.068 144.986 152.909 144.592C152.81 144.346 152.692 144.107 152.559 143.878C152.462 143.711 152.304 143.529 152.238 143.348C151.86 143.662 151.482 143.976 151.105 144.29C151.621 144.51 152.134 144.643 152.698 144.648C152.953 144.65 153.249 144.635 153.493 144.558C153.793 144.463 153.997 144.271 154.217 144.053C154.63 143.642 154.254 143.018 153.756 142.986C153.589 142.976 153.419 142.932 153.241 142.945C153.045 142.961 152.856 143.002 152.658 143.004C152.316 143.008 151.995 142.924 151.676 142.797C150.938 142.5 150.366 143.673 150.943 144.167C151.34 144.507 151.701 145.254 151.723 145.713C151.742 146.111 151.619 146.576 151.174 146.646C150.924 146.685 150.641 146.598 150.409 146.51C150.101 146.395 149.784 146.261 149.49 146.115C149.168 145.955 148.83 145.819 148.517 145.644C148.199 145.466 147.899 145.255 147.532 145.205C147.386 145.184 147.185 145.314 147.264 145.493Z" fill="#332B23"/>
<path d="M92.0175 100.938C92.0115 100.954 92.0045 100.97 91.9984 100.986C92.0456 100.92 92.0937 100.854 92.1408 100.788C92.0195 100.911 91.9924 100.984 91.9383 101.126C91.8811 101.246 91.8561 101.373 91.8651 101.508C91.8651 101.516 91.8641 101.522 91.8641 101.529C91.8771 101.617 91.8911 101.704 91.9052 101.791C91.9383 101.918 91.9984 102.03 92.0857 102.122C92.1308 102.195 92.189 102.253 92.2622 102.295C92.3574 102.381 92.4677 102.436 92.5941 102.464C92.7455 102.495 92.9571 102.516 93.1055 102.451C93.2298 102.417 93.3381 102.355 93.4283 102.265C93.5316 102.193 93.6118 102.099 93.669 101.981C93.6991 101.902 93.7301 101.821 93.7602 101.742C93.8023 101.566 93.7973 101.391 93.7482 101.216C93.7281 101.124 93.687 101.039 93.6389 100.959C93.5316 100.781 93.4414 100.72 93.2759 100.604C93.3912 100.717 93.5055 100.83 93.6208 100.942C93.6108 100.927 93.6008 100.911 93.5908 100.895C93.5065 100.756 93.3952 100.647 93.2559 100.567C93.1115 100.486 92.9581 100.448 92.7936 100.451C92.6292 100.456 92.4777 100.502 92.3373 100.59C92.201 100.681 92.0947 100.796 92.0175 100.938Z" fill="#332B23"/>
<path d="M90.1928 106.441C90.2008 106.445 90.2089 106.449 90.2169 106.452C90.2881 106.484 90.3643 106.515 90.4385 106.542C90.4556 106.548 90.4736 106.553 90.4906 106.556C90.3623 106.483 90.2329 106.411 90.1046 106.338C90.1076 106.342 90.1106 106.345 90.1136 106.349C90.0655 106.289 90.0183 106.229 89.9702 106.168L89.9712 106.169C90.0535 106.305 90.1627 106.412 90.2991 106.49C90.4405 106.57 90.5909 106.608 90.7524 106.605C90.8506 106.591 90.9539 106.581 91.0502 106.553C91.0602 106.55 91.0712 106.547 91.0813 106.543C91.0863 106.541 91.0913 106.539 91.0963 106.537C91.1344 106.52 91.1725 106.503 91.2096 106.484C91.2517 106.474 91.2888 106.455 91.3229 106.431C91.3911 106.378 91.4603 106.32 91.5244 106.263C91.5325 106.256 91.5405 106.247 91.5485 106.24C91.5566 106.231 91.5646 106.222 91.5726 106.212C91.6257 106.143 91.6779 106.069 91.727 105.996C91.7902 105.888 91.8233 105.772 91.8263 105.648C91.8503 105.523 91.8423 105.401 91.8012 105.278C91.7691 105.205 91.737 105.132 91.705 105.059C91.6458 104.952 91.5656 104.867 91.4663 104.805C91.4081 104.748 91.341 104.71 91.2638 104.69C91.1545 104.635 91.0381 104.611 90.9138 104.619C90.8336 104.633 90.7544 104.645 90.6741 104.658C90.5217 104.707 90.3914 104.789 90.2811 104.908C90.267 104.924 90.251 104.94 90.2339 104.954C90.2941 104.904 90.3543 104.854 90.4144 104.804C90.4014 104.814 90.3883 104.824 90.3743 104.832C90.2971 104.883 90.2309 104.95 90.1597 105.01C90.2199 104.959 90.2801 104.91 90.3402 104.859C90.3162 104.879 90.2911 104.895 90.263 104.91C90.1306 104.994 90.0264 105.107 89.9512 105.246C89.8739 105.392 89.8369 105.547 89.8409 105.712V105.714C89.8499 105.633 89.8579 105.552 89.8669 105.471C89.8659 105.475 89.8649 105.479 89.8639 105.483C89.9923 105.303 90.1196 105.123 90.248 104.944C90.2299 104.956 90.2119 104.967 90.1918 104.977C90.258 104.946 90.3232 104.916 90.3894 104.885C90.3783 104.89 90.3663 104.894 90.3553 104.898C90.2911 104.928 90.2259 104.958 90.1618 104.988C90.1076 105.033 90.0534 105.079 89.9993 105.124C89.9582 105.182 89.9171 105.239 89.875 105.298C89.8178 105.396 89.7877 105.501 89.7857 105.613C89.7677 105.688 89.7697 105.762 89.7907 105.836C89.7927 105.913 89.8128 105.983 89.8519 106.048C89.8729 106.119 89.9101 106.179 89.9612 106.231C90.0173 106.32 90.0955 106.39 90.1928 106.441Z" fill="#332B23"/>
<path d="M96.4347 109.262L96.4367 109.265C96.4658 108.977 96.4948 108.69 96.5239 108.401C96.5119 108.412 96.4998 108.423 96.4868 108.433C96.4427 108.496 96.3976 108.558 96.3534 108.621C96.2913 108.727 96.2592 108.84 96.2562 108.961C96.2371 109.042 96.2391 109.122 96.2622 109.202C96.2702 109.322 96.3083 109.434 96.3755 109.536C96.3775 109.539 96.3795 109.543 96.3805 109.547C96.3494 109.475 96.3183 109.404 96.2873 109.334C96.2923 109.345 96.2953 109.356 96.2973 109.368C96.2853 109.291 96.2732 109.214 96.2612 109.137C96.2632 109.148 96.2632 109.16 96.2622 109.172C96.2702 109.097 96.2783 109.021 96.2863 108.945C96.2843 108.961 96.2813 108.975 96.2762 108.988C96.3013 108.923 96.3264 108.857 96.3514 108.792C96.3454 108.808 96.3374 108.824 96.3274 108.837C96.3655 108.783 96.4036 108.73 96.4427 108.676C96.4327 108.691 96.4206 108.703 96.4076 108.715C96.4557 108.674 96.5028 108.635 96.551 108.595C96.543 108.601 96.5349 108.607 96.5259 108.613C96.5811 108.587 96.6362 108.561 96.6914 108.535C96.6783 108.54 96.6663 108.545 96.6523 108.547C96.7124 108.537 96.7726 108.527 96.8317 108.517C96.8257 108.518 96.8187 108.518 96.8127 108.519C96.6924 108.522 96.5801 108.556 96.4778 108.621C96.3785 108.685 96.3013 108.769 96.2441 108.873C96.1268 109.09 96.1378 109.355 96.2612 109.567C96.2943 109.623 96.3404 109.68 96.3896 109.728C96.3936 109.731 96.3976 109.735 96.4016 109.738C96.4437 109.773 96.5039 109.817 96.549 109.849C96.552 109.851 96.554 109.853 96.557 109.855C96.5089 109.819 96.4607 109.782 96.4126 109.746C96.4667 109.794 96.5249 109.839 96.5861 109.876C96.5951 109.881 96.6051 109.886 96.6142 109.89C96.6453 109.904 96.7585 109.958 96.8267 109.974C96.9049 109.991 96.9862 109.998 97.0664 110.002C97.0774 110.002 97.0884 110.002 97.0995 110.001C97.1717 109.988 97.2439 109.977 97.3161 109.965C97.3181 109.965 97.3201 109.964 97.3221 109.964C97.3251 109.963 97.3281 109.963 97.3311 109.962C97.3361 109.96 97.3411 109.958 97.3461 109.956C97.4224 109.929 97.5046 109.898 97.5728 109.849C97.5748 109.848 97.5768 109.846 97.5798 109.844C97.6369 109.796 97.6941 109.748 97.7513 109.701C97.7533 109.7 97.7543 109.698 97.7563 109.697C97.7603 109.693 97.7653 109.689 97.7693 109.683C97.8134 109.621 97.8586 109.559 97.9027 109.496C97.9649 109.39 97.9969 109.277 97.9989 109.156C98.018 109.075 98.016 108.995 97.9929 108.915C97.9849 108.795 97.9468 108.683 97.8796 108.581C97.8325 108.521 97.7844 108.46 97.7372 108.4C97.6761 108.354 97.6159 108.309 97.5547 108.262C97.4514 108.199 97.3412 108.166 97.2238 108.163C97.1055 108.139 96.9882 108.147 96.8719 108.187C96.8568 108.194 96.8408 108.201 96.8247 108.208C96.8859 108.198 96.9471 108.188 97.0082 108.178H97.0052C96.8809 108.182 96.7656 108.217 96.6593 108.284C96.557 108.35 96.4768 108.436 96.4176 108.545C96.3575 108.657 96.3294 108.776 96.3324 108.905C96.3354 109.035 96.3695 109.153 96.4347 109.262Z" fill="#332B23"/>
<path d="M93.1342 114.139C93.1171 114.13 93.1001 114.12 93.084 114.109C93.076 114.104 93.061 114.092 93.077 114.104C93.069 114.098 93.0609 114.091 93.0539 114.085C93.0409 114.072 93.0289 114.059 93.0158 114.045C93.0038 114.033 93.0108 114.038 93.0178 114.049C93.0108 114.039 93.0038 114.029 92.9978 114.02C92.9807 114.095 92.9637 114.169 92.9466 114.244C93.0349 114.199 93.1231 114.125 93.1682 114.032C93.2124 113.941 93.2214 113.862 93.2314 113.759C93.2264 113.806 93.2214 113.851 93.2164 113.896C93.2244 113.821 93.2435 113.748 93.2695 113.677C93.2525 113.722 93.2344 113.768 93.2174 113.814C93.2324 113.775 93.2495 113.737 93.2695 113.699C93.2405 113.741 93.2114 113.781 93.1823 113.822C93.2104 113.788 93.2394 113.756 93.2715 113.727C93.1231 113.794 92.9757 113.862 92.8273 113.93C92.8845 113.933 92.9717 113.915 93.0269 113.9C93.1271 113.874 93.2535 113.794 93.3257 113.712C93.3387 113.696 93.3508 113.679 93.3648 113.663C93.3919 113.633 93.4209 113.604 93.453 113.577C93.4059 113.616 93.3598 113.655 93.3127 113.694C93.3528 113.662 93.3959 113.635 93.442 113.613C93.3848 113.64 93.3267 113.667 93.2695 113.693C93.2906 113.684 93.3116 113.675 93.3337 113.67C93.2685 113.68 93.2023 113.691 93.1372 113.702C93.1713 113.697 93.2043 113.697 93.2374 113.701C92.9837 113.512 92.7301 113.324 92.4764 113.135C92.4774 113.142 92.4784 113.149 92.4794 113.156C92.5104 113.227 92.5426 113.299 92.5736 113.371C92.6318 113.476 92.71 113.558 92.8073 113.62C92.8634 113.675 92.9296 113.713 93.0048 113.732C93.1121 113.787 93.2254 113.81 93.3478 113.802C93.3558 113.802 93.3648 113.803 93.3728 113.805C93.2946 113.795 93.2154 113.787 93.1372 113.778C93.1833 113.783 93.2284 113.794 93.2725 113.811C93.2003 113.782 93.1291 113.753 93.057 113.724C93.0971 113.741 93.1342 113.761 93.1703 113.787C93.1091 113.741 93.0469 113.694 92.9847 113.647C93.0188 113.673 93.0479 113.703 93.075 113.736C93.0269 113.674 92.9777 113.613 92.9296 113.551C92.9486 113.576 92.9647 113.602 92.9817 113.628C93.0389 113.722 93.1111 113.793 93.1793 113.874C93.1311 113.813 93.084 113.753 93.0359 113.692C93.0469 113.709 93.0549 113.727 93.0629 113.746C93.0319 113.674 92.9998 113.603 92.9687 113.531C92.9978 113.6 93.0178 113.672 93.0289 113.746C93.0168 113.667 93.0048 113.587 92.9918 113.509C93.0038 113.593 93.0058 113.678 92.9968 113.763C93.0048 113.685 93.0138 113.607 93.0219 113.529C93.0128 113.604 92.9958 113.677 92.9697 113.747C92.9968 113.678 93.0228 113.608 93.0499 113.538C93.0279 113.594 93.0008 113.647 92.9657 113.695C93.0078 113.637 93.0499 113.578 93.091 113.519C93.0439 113.584 92.9978 113.649 92.9517 113.714C92.9938 113.655 93.0349 113.597 93.077 113.538C93.0499 113.576 93.0198 113.61 92.9847 113.64C93.0389 113.594 93.092 113.55 93.1462 113.505C93.1161 113.53 93.082 113.546 93.0509 113.57C92.9988 113.614 92.9456 113.658 92.8925 113.702C92.8163 113.778 92.7641 113.866 92.734 113.969C92.6709 114.133 92.6478 114.332 92.707 114.503C92.7531 114.637 92.8243 114.756 92.9206 114.859C93.0569 115.004 93.2956 115.093 93.4891 115.084C94.0958 115.06 94.555 114.517 94.6854 113.941C94.7516 113.647 94.7385 113.387 94.6844 113.095C94.6342 112.821 94.5059 112.568 94.3054 112.375C94.0336 112.115 93.6766 111.979 93.3056 111.986C93.2274 111.998 93.1492 112.012 93.071 112.024C92.9567 112.055 92.8574 112.112 92.7742 112.194C92.709 112.236 92.6569 112.292 92.6198 112.361C92.5435 112.45 92.4934 112.555 92.4694 112.674C92.4663 112.688 92.4623 112.703 92.4593 112.717C92.5736 112.556 92.6879 112.396 92.8023 112.235C92.724 112.288 92.6509 112.352 92.5827 112.416C92.6318 112.375 92.6809 112.335 92.73 112.294C92.6518 112.359 92.5666 112.417 92.4974 112.493C92.4302 112.565 92.3731 112.651 92.3209 112.734C92.2979 112.77 92.2778 112.809 92.2608 112.849C92.2307 112.918 92.1976 112.992 92.1775 113.065C92.1475 113.177 92.1535 113.331 92.1886 113.444C92.2257 113.567 92.2959 113.653 92.3751 113.752C92.3089 113.6 92.2437 113.447 92.1785 113.296C92.1725 113.507 92.1856 113.736 92.2547 113.934C92.2969 114.054 92.3761 114.176 92.4914 114.235C92.6067 114.294 92.7521 114.326 92.8765 114.277C92.8875 114.273 92.8985 114.269 92.9095 114.264C92.8574 114.251 92.8063 114.238 92.7541 114.226C92.8374 114.301 92.9346 114.353 93.0439 114.379C93.1793 114.408 93.2625 114.208 93.1342 114.139Z" fill="#332B23"/>
<path d="M112.764 93.1449C112.742 93.1439 112.72 93.1439 112.698 93.1429C112.837 93.1779 112.974 93.2119 113.112 93.2469C113.11 93.2458 113.109 93.2448 113.107 93.2438C113.041 93.217 112.975 93.1902 112.909 93.1635C112.798 93.1305 112.689 93.1285 112.581 93.1563C112.507 93.1583 112.437 93.1789 112.374 93.2191C112.25 93.2768 112.292 93.25 112.187 93.3385C112.126 93.3777 112.078 93.4292 112.043 93.494C112.02 93.5249 111.998 93.5568 111.976 93.5888C111.969 93.598 111.963 93.6083 111.956 93.6176C111.952 93.6238 111.947 93.63 111.943 93.6361C111.922 93.666 111.909 93.6989 111.903 93.737C111.885 93.77 111.872 93.805 111.864 93.8411C111.856 93.9121 111.849 93.9821 111.842 94.0532C111.841 94.1634 111.865 94.2643 111.916 94.358C111.936 94.4249 111.97 94.4826 112.019 94.531C112.075 94.6164 112.15 94.6823 112.241 94.7307C112.243 94.7318 112.246 94.7328 112.246 94.7328C112.309 94.7586 112.372 94.7833 112.434 94.809C112.504 94.8296 112.583 94.8306 112.657 94.8327C112.671 94.8327 112.685 94.8337 112.7 94.8337C112.706 94.8337 112.713 94.8348 112.719 94.8348C112.791 94.8224 112.865 94.8111 112.937 94.7987C112.94 94.7977 112.943 94.7967 112.947 94.7946C113.012 94.7647 113.076 94.7349 113.141 94.704C113.236 94.6484 113.311 94.5742 113.367 94.4805C113.417 94.427 113.45 94.3631 113.468 94.291C113.488 94.2571 113.501 94.22 113.508 94.1819C113.482 94.2488 113.457 94.3168 113.431 94.3837C113.443 94.3662 113.454 94.3498 113.466 94.3333C113.533 94.2066 113.566 94.0707 113.563 93.9265C113.559 93.7823 113.519 93.6485 113.446 93.5249C113.374 93.4065 113.279 93.3128 113.159 93.2448C113.037 93.1748 112.905 93.1418 112.764 93.1449Z" fill="#332B23"/>
<path d="M108.913 99.799C109.046 99.8011 109.169 99.7692 109.283 99.7043C109.401 99.661 109.504 99.59 109.589 99.4911C109.681 99.3985 109.744 99.2914 109.78 99.1668C109.838 99.0473 109.863 98.9186 109.855 98.7827C109.841 98.6951 109.828 98.6076 109.814 98.5201C109.763 98.3533 109.677 98.2091 109.555 98.0886C109.489 98.0382 109.422 97.9887 109.355 97.9383C109.203 97.8528 109.039 97.8116 108.865 97.8147C108.732 97.8126 108.609 97.8446 108.495 97.9095C108.377 97.9527 108.274 98.0238 108.189 98.1226C108.097 98.2153 108.034 98.3224 107.998 98.447C107.94 98.5664 107.915 98.6951 107.923 98.8311C107.937 98.9186 107.95 99.0061 107.964 99.0936C108.015 99.2605 108.101 99.4046 108.223 99.5251C108.289 99.5756 108.356 99.625 108.422 99.6754C108.575 99.7619 108.739 99.8031 108.913 99.799Z" fill="#332B23"/>
<path d="M115.106 100.349C114.994 100.323 114.876 100.315 114.761 100.306C114.599 100.31 114.45 100.356 114.311 100.444C114.178 100.529 114.074 100.642 113.996 100.783C113.977 100.821 113.962 100.86 113.95 100.901C113.928 100.939 113.913 100.98 113.906 101.022C114.035 100.841 114.164 100.66 114.292 100.479C114.225 100.528 114.124 100.604 114.087 100.649C114.046 100.695 113.984 100.784 113.954 100.838C113.921 100.896 113.891 100.984 113.871 101.06C113.897 100.993 113.923 100.924 113.949 100.856C113.947 100.859 113.946 100.861 113.944 100.864C113.985 100.806 114.026 100.748 114.069 100.69C113.991 100.773 113.926 100.871 113.864 100.966C113.798 101.089 113.767 101.221 113.77 101.362C113.774 101.503 113.811 101.633 113.883 101.752C113.953 101.868 114.047 101.958 114.162 102.025C114.282 102.093 114.411 102.125 114.547 102.122C114.592 102.115 114.636 102.112 114.681 102.113C114.608 102.105 114.536 102.096 114.463 102.088C114.466 102.089 114.469 102.089 114.472 102.09C114.405 102.063 114.338 102.037 114.272 102.01C114.276 102.013 114.28 102.016 114.285 102.018C114.422 102.096 114.479 102.103 114.612 102.118C114.668 102.124 114.716 102.129 114.77 102.132C114.564 102.05 114.356 101.969 114.15 101.886C114.177 101.919 114.21 101.946 114.249 101.965C114.281 101.99 114.314 102.015 114.348 102.039C114.491 102.119 114.642 102.157 114.805 102.153C114.967 102.149 115.116 102.103 115.255 102.015C115.28 102 115.305 101.986 115.331 101.974C115.263 102.006 115.194 102.038 115.125 102.07C115.132 102.067 115.139 102.063 115.147 102.06C115.215 102.028 115.283 101.998 115.35 101.966C115.449 101.907 115.529 101.829 115.587 101.731C115.639 101.674 115.674 101.608 115.693 101.532C115.744 101.425 115.766 101.311 115.759 101.188C115.747 101.11 115.735 101.032 115.723 100.953C115.692 100.883 115.662 100.813 115.631 100.743C115.575 100.641 115.498 100.56 115.402 100.5C115.318 100.424 115.219 100.374 115.106 100.349Z" fill="#332B23"/>
<path d="M111.655 106.46C111.759 106.462 111.856 106.437 111.945 106.386C112.038 106.352 112.117 106.297 112.184 106.22C112.256 106.147 112.306 106.063 112.334 105.966C112.379 105.873 112.398 105.773 112.392 105.666C112.381 105.597 112.371 105.529 112.36 105.46C112.321 105.329 112.254 105.217 112.157 105.122C112.105 105.083 112.054 105.044 112.002 105.004C111.883 104.938 111.754 104.906 111.618 104.908C111.514 104.907 111.417 104.931 111.328 104.982C111.235 105.016 111.156 105.071 111.089 105.149C111.016 105.221 110.966 105.305 110.938 105.402C110.893 105.496 110.874 105.596 110.88 105.703C110.891 105.771 110.901 105.84 110.912 105.909C110.951 106.039 111.018 106.152 111.115 106.246C111.167 106.285 111.218 106.325 111.27 106.364C111.39 106.432 111.519 106.464 111.655 106.46Z" fill="#332B23"/>
<path d="M193.523 114.569C186.729 108.838 178.4 105.426 169.999 103.023C160.831 100.401 151.378 99.1277 141.923 98.1989C139.195 97.9311 136.466 97.6788 133.735 97.4327C132.379 97.3102 131.016 97.1485 129.653 97.1145C129.021 97.0991 128.393 97.1403 127.766 97.2319C127.089 97.3318 126.518 97.6933 125.937 98.0526C125.547 98.2936 125.755 98.8836 126.181 98.8939C126.73 98.9073 127.265 99.0432 127.81 99.0309C128.401 99.0175 128.99 99.0062 129.581 99.0185C130.739 99.0412 131.893 99.1441 133.048 99.2348C135.451 99.4232 137.855 99.6065 140.256 99.8258C144.981 100.257 149.702 100.763 154.397 101.468C163.212 102.793 171.997 104.758 180.27 108.217C184.77 110.097 189.162 112.3 193.39 114.755C193.498 114.82 193.624 114.655 193.523 114.569Z" fill="#332B23"/>
<path d="M194.911 93.5361C193.075 92.9172 191.275 92.1531 189.391 91.6898C187.51 91.2264 185.636 90.8227 183.723 90.5241C179.986 89.9413 176.212 89.6241 172.435 89.5366C164.727 89.3574 157.024 90.1658 149.425 91.4385C147.256 91.802 145.094 92.2015 142.937 92.633C140.787 93.0634 138.606 93.4393 136.543 94.2034C135.847 94.4618 135.943 95.6748 136.761 95.5966C138.696 95.4112 140.578 94.9386 142.481 94.537C144.314 94.1508 146.151 93.7843 147.993 93.4496C151.761 92.7658 155.551 92.2118 159.357 91.8236C166.932 91.0513 174.591 90.972 182.159 91.8772C184.238 92.1253 186.324 92.4064 188.392 92.737C190.544 93.0809 192.731 93.2766 194.864 93.7297C194.989 93.7575 195.03 93.5762 194.911 93.5361Z" fill="#332B23"/>
<path d="M28.1733 144.236C28.9394 143.106 29.3916 141.812 30.2319 140.711C31.1755 139.473 32.2965 138.382 33.4527 137.356C35.9184 135.167 38.4964 133.098 41.0253 130.987C43.9834 128.517 46.9876 126.098 50.1662 123.931C53.2296 121.844 56.4013 119.895 59.6281 118.088C61.435 117.076 63.272 116.124 65.1441 115.245C67.0643 114.343 69.0427 113.603 70.9961 112.784C70.7163 112.318 70.4375 111.851 70.1578 111.385C69.9733 111.641 69.7437 111.743 69.488 111.911C69.0367 112.207 69.2262 113.014 69.7958 112.976C70.3142 112.941 70.7083 112.925 71.1906 112.694C72.0409 112.287 71.3942 110.851 70.5168 111.158C66.951 112.403 63.5046 114.2 60.1796 116.002C56.8154 117.825 53.5475 119.839 50.3468 121.947C47.0026 124.149 43.8601 126.65 40.7756 129.218C38.0803 131.461 35.3448 133.675 32.7117 135.996C31.3941 137.157 30.1156 138.398 29.0687 139.825C28.2154 140.989 27.1034 142.677 27.6629 144.182C27.7531 144.423 28.0349 144.44 28.1733 144.236Z" fill="#332B23"/>
<path d="M9.71018 132.164C10.5234 131.69 11.4018 131.348 12.216 130.867C13.0232 130.39 13.8214 129.894 14.6296 129.417C16.2791 128.445 17.9466 127.505 19.6282 126.592C22.9383 124.793 26.3075 123.107 29.7298 121.545C36.5765 118.42 43.6036 115.734 50.8002 113.588C52.8418 112.98 54.8944 112.42 56.9611 111.908C57.9758 111.657 58.9936 111.416 60.0134 111.186C61.0572 110.95 62.1522 110.837 63.0858 110.281C63.7726 109.872 63.3395 108.975 62.6877 108.904C61.7521 108.801 60.8417 109.116 59.9362 109.338C58.9936 109.568 58.054 109.808 57.1165 110.056C55.3126 110.534 53.5167 111.045 51.7268 111.577C48.0748 112.663 44.46 113.882 40.8932 115.234C33.841 117.906 26.9833 121.096 20.3923 124.809C18.5302 125.859 16.6902 126.947 14.8733 128.076C13.9487 128.65 13.0292 129.233 12.1157 129.826C11.1862 130.43 10.3991 131.181 9.51365 131.836C9.31811 131.979 9.4976 132.288 9.71018 132.164Z" fill="#332B23"/>
<path d="M36.5242 105.719C36.9162 105.819 37.3865 105.803 37.7866 105.818C38.1927 105.831 38.6189 105.793 39.027 105.786C39.9375 105.77 40.846 105.689 41.7554 105.659C43.6165 105.598 45.4806 105.394 47.3387 105.26C49.1596 105.128 50.9816 105.005 52.8046 104.921C53.5025 104.889 54.2074 104.825 54.9043 104.906C55.5681 104.984 56.1948 105.24 56.8266 105.448C57.2587 105.59 57.6779 105.101 57.5405 104.678C57.0141 103.053 55.1049 102.912 53.693 102.986C51.7688 103.088 49.8355 103.377 47.9203 103.595C45.9409 103.819 43.9354 103.996 41.972 104.345C41.0646 104.506 40.1621 104.684 39.2556 104.851C38.7763 104.939 38.282 105.04 37.8087 105.156C37.3956 105.257 36.8811 105.373 36.5031 105.579C36.446 105.611 36.465 105.703 36.5242 105.719Z" fill="#332B23"/>
<path d="M189.725 78.7194C187.333 78.0768 184.788 78.1829 182.333 78.1005C179.814 78.0161 177.296 77.9234 174.776 77.8781C169.815 77.7885 164.956 78.2169 160.137 79.467C155.476 80.6759 150.894 82.2524 146.318 83.762C141.722 85.2788 137.148 86.8759 132.65 88.679C130.153 89.6799 127.683 90.7477 125.245 91.8897C124.633 92.176 124.024 92.4674 123.417 92.765C122.924 93.007 122.269 93.2129 121.946 93.699C121.268 94.7184 122.617 96.056 123.464 95.0922C124.021 94.4589 123.281 93.5486 122.564 93.9523C122.533 93.9698 122.501 93.9873 122.469 94.0048C122.658 93.9749 122.847 93.944 123.036 93.9142C123.079 94.0491 123.121 94.1829 123.164 94.3178C123.145 94.7071 123.235 94.8152 123.435 94.6422C123.527 94.6309 123.67 94.5228 123.754 94.4795C124.003 94.3549 124.252 94.2313 124.502 94.1088C125.001 93.8637 125.503 93.6217 126.005 93.3839C127.017 92.904 128.037 92.4406 129.061 91.9896C131.097 91.0937 133.153 90.2483 135.223 89.442C139.407 87.813 143.646 86.3394 147.906 84.9369C152.144 83.5416 156.387 82.0876 160.705 80.9714C162.891 80.4061 165.102 79.952 167.346 79.7162C169.624 79.4762 171.911 79.4392 174.199 79.4227C176.797 79.4041 179.394 79.4206 181.991 79.4103C184.555 79.4011 187.218 79.6019 189.731 79.0067C189.875 78.9717 189.856 78.7544 189.725 78.7194Z" fill="#332B23"/>
</svg>
