<svg width="52" height="52" viewBox="0 0 52 52" fill="none" xmlns="http://www.w3.org/2000/svg">
<rect width="52" height="52" fill="black"/>
<g clip-path="url(#clip0_716_4456)">
<path d="M35.1993 32.368C37.3281 29.5232 38.3001 25.9776 37.9198 22.445C37.5394 18.9123 35.835 15.6549 33.1496 13.3284C30.4641 11.0019 26.997 9.77909 23.4463 9.90608C19.8955 10.0331 16.5246 11.5004 14.0122 14.0128C11.4998 16.5252 10.0325 19.8961 9.90547 23.4469C9.77848 26.9977 11.0013 30.4647 13.3278 33.1502C15.6543 35.8356 18.9117 37.54 22.4444 37.9204C25.977 38.3007 29.5226 37.3287 32.3673 35.2L39.1673 42L41.9993 39.1733L35.1993 32.368ZM23.9993 34C22.0215 34 20.0881 33.4135 18.4436 32.3147C16.7991 31.2158 15.5174 29.6541 14.7605 27.8268C14.0037 25.9995 13.8056 23.9889 14.1915 22.0491C14.5773 20.1092 15.5298 18.3274 16.9283 16.9289C18.3268 15.5304 20.1086 14.578 22.0484 14.1921C23.9883 13.8062 25.9989 14.0043 27.8262 14.7612C29.6534 15.518 31.2152 16.7998 32.314 18.4443C33.4129 20.0887 33.9993 22.0221 33.9993 24C33.9969 26.6514 32.9425 29.1935 31.0677 31.0683C29.1929 32.9431 26.6508 33.9975 23.9993 34Z" fill="white"/>
</g>
<defs>
<clipPath id="clip0_716_4456">
<rect width="32" height="32" fill="white" transform="translate(10 10)"/>
</clipPath>
</defs>
</svg>
